<svg width="23" height="24" viewBox="0 0 23 24" fill="none" xmlns="http://www.w3.org/2000/svg">
<path d="M6.96335 0.5C7.26335 0.2 7.66335 0 8.06335 0H10.9634C11.3634 0 11.5634 0.4 11.2634 0.7L5.56335 6.9H8.76335L11.9634 10.3H5.56335L11.9634 17.2H8.06335C7.66335 17.2 7.16335 17 6.86335 16.7L0.363353 9.7C-0.136647 9.1 -0.136647 8.1 0.463353 7.5L6.96335 0.5Z" fill="white"/>
<path d="M15.8633 23.5C15.5633 23.8 15.1633 24 14.6633 24H11.7633C11.3633 24 11.1633 23.6 11.4633 23.3L17.2633 17.1H14.0633L10.8633 13.7H17.2633L10.8633 6.80005H14.7633C15.1633 6.80005 15.6633 7.00005 15.9633 7.30005L22.4633 14.3C23.0633 14.9 23.0633 15.9 22.4633 16.5L15.8633 23.5Z" fill="white"/>
</svg>
