<svg width="2480" height="677" viewBox="0 0 2480 677" fill="none" xmlns="http://www.w3.org/2000/svg">
<path d="M307.66 19.797C308.64 19.79 309.62 19.7829 310.629 19.7757C313.774 19.7583 316.918 19.7519 320.062 19.7501C321.138 19.7494 322.214 19.7487 323.322 19.748C339.428 19.7641 355.095 20.2592 371 23.0001C372.051 23.1717 373.102 23.3433 374.186 23.5201C433.403 33.3283 489.37 59.8087 534 100C534.559 100.503 535.118 101.006 535.694 101.524C545.64 110.506 555.405 119.696 564 130C564.678 130.808 564.678 130.808 565.37 131.631C606.796 181.118 632.83 240.772 640 305C640.087 305.75 640.175 306.501 640.265 307.273C640.95 313.528 641.174 319.711 641.203 326C641.21 327.026 641.217 328.051 641.225 329.108C641.452 371.909 641.452 371.909 638 391C637.801 392.135 637.603 393.27 637.398 394.439C634.242 412.04 629.773 429.082 624 446C623.694 446.901 623.387 447.802 623.072 448.73C609.693 487.364 588.093 523.586 560.258 553.559C558.327 555.647 556.467 557.771 554.625 559.938C547.415 568.221 539.451 575.993 531 583C530.465 583.449 529.929 583.899 529.377 584.361C475.427 629.529 405.453 659.86 334.34 660.203C333.36 660.21 332.38 660.217 331.371 660.224C328.226 660.242 325.082 660.248 321.938 660.25C320.862 660.251 319.786 660.252 318.678 660.252C302.572 660.236 286.905 659.741 271 657C269.949 656.829 268.898 656.657 267.814 656.48C195.557 644.512 125.251 606.591 78 550C77.5585 549.478 77.117 548.955 76.6621 548.417C62.6257 531.759 50.4657 514.101 40 495C39.3506 493.827 39.3506 493.827 38.688 492.629C15.5866 450.709 1.02871 401.369 0.796875 353.34C0.789861 352.36 0.782862 351.38 0.775635 350.371C0.758232 347.226 0.751767 344.082 0.75 340.938C0.749325 339.862 0.748651 338.786 0.747955 337.678C0.76401 321.572 1.25915 305.905 4 290C4.17161 288.949 4.34321 287.898 4.52002 286.815C16.4881 214.557 54.4091 144.251 111 97.0001C111.522 96.5586 112.045 96.1171 112.583 95.6622C129.241 81.6258 146.899 69.4658 166 59.0001C166.782 58.5671 167.565 58.1342 168.371 57.6881C210.291 34.5867 259.632 20.0288 307.66 19.797Z" fill="white"/>
<path d="M307.66 19.797C308.64 19.79 309.62 19.7829 310.629 19.7757C313.774 19.7583 316.918 19.7519 320.062 19.7501C321.138 19.7494 322.214 19.7487 323.322 19.748C339.428 19.7641 355.095 20.2592 371 23.0001C372.051 23.1717 373.102 23.3433 374.186 23.5201C433.403 33.3283 489.37 59.8087 534 100C534.559 100.503 535.118 101.006 535.694 101.524C545.64 110.506 555.405 119.696 564 130C564.678 130.808 564.678 130.808 565.37 131.631C606.796 181.118 632.83 240.772 640 305C640.087 305.75 640.175 306.501 640.265 307.273C640.95 313.528 641.174 319.711 641.203 326C641.21 327.026 641.217 328.051 641.225 329.108C641.452 371.909 641.452 371.909 638 391C637.801 392.135 637.603 393.27 637.398 394.439C634.242 412.04 629.773 429.082 624 446C623.694 446.901 623.387 447.802 623.072 448.73C609.693 487.364 588.093 523.586 560.258 553.559C558.327 555.647 556.467 557.771 554.625 559.938C547.415 568.221 539.451 575.993 531 583C530.465 583.449 529.929 583.899 529.377 584.361C475.427 629.529 405.453 659.86 334.34 660.203C333.36 660.21 332.38 660.217 331.371 660.224C328.226 660.242 325.082 660.248 321.938 660.25C320.862 660.251 319.786 660.252 318.678 660.252C302.572 660.236 286.905 659.741 271 657C269.949 656.829 268.898 656.657 267.814 656.48C195.557 644.512 125.251 606.591 78 550C77.5585 549.478 77.117 548.955 76.6621 548.417C62.6257 531.759 50.4657 514.101 40 495C39.3506 493.827 39.3506 493.827 38.688 492.629C15.5866 450.709 1.02871 401.369 0.796875 353.34C0.789861 352.36 0.782862 351.38 0.775635 350.371C0.758232 347.226 0.751767 344.082 0.75 340.938C0.749325 339.862 0.748651 338.786 0.747955 337.678C0.76401 321.572 1.25915 305.905 4 290C4.17161 288.949 4.34321 287.898 4.52002 286.815C16.4881 214.557 54.4091 144.251 111 97.0001C111.522 96.5586 112.045 96.1171 112.583 95.6622C129.241 81.6258 146.899 69.4658 166 59.0001C166.782 58.5671 167.565 58.1342 168.371 57.6881C210.291 34.5867 259.632 20.0288 307.66 19.797ZM134 111C133.457 111.438 132.915 111.877 132.355 112.328C117.249 124.586 102.744 138.464 91 154C90.0044 155.258 89.0069 156.514 88.0078 157.77C59.3071 194.131 40.9374 235.935 31 281C30.7699 281.98 30.7699 281.98 30.5351 282.979C26.5601 300.167 25.525 317.461 25.6638 335.054C25.6876 338.263 25.6843 341.471 25.6777 344.68C25.7002 362.103 27.183 378.979 30.3125 396.125C30.5312 397.327 30.75 398.53 30.9753 399.768C32.7258 409.091 34.9673 418.023 38 427C38.2821 427.864 38.5643 428.727 38.855 429.617C55.7291 481.213 86.2426 531.583 129.199 565.746C131.005 567.199 132.781 568.69 134.52 570.223C149.883 583.697 167.827 594.728 186 604C186.799 604.409 187.598 604.818 188.421 605.24C217.309 619.866 247.924 629.526 280 634C281.208 634.176 282.416 634.352 283.66 634.533C295.717 636.188 307.718 636.438 319.875 636.438C320.919 636.439 321.962 636.441 323.037 636.443C342.418 636.429 360.976 634.579 380 631C381.697 630.709 383.393 630.419 385.09 630.129C451.254 617.931 515.294 575.066 555.646 521.787C556.544 520.602 557.446 519.421 558.355 518.244C566.484 507.698 573.414 496.565 580 485C580.442 484.227 580.885 483.454 581.34 482.657C588.891 469.309 594.673 455.364 600 441C600.374 439.993 600.749 438.985 601.134 437.947C612.699 406.324 617.228 372.867 617.25 339.313C617.251 338.404 617.251 337.495 617.252 336.559C617.235 321.848 616.531 307.519 614 293C613.743 291.48 613.743 291.48 613.48 289.929C604.617 238.8 582.708 190.563 549 151C548.112 149.928 547.226 148.855 546.34 147.781C535.408 134.647 523.494 122.508 510 112C508.838 111.051 507.678 110.099 506.52 109.145C475.56 83.7358 439.331 66.2241 401 55.0001C399.931 54.6727 398.863 54.3452 397.762 54.0079C389.067 51.511 380.281 49.8682 371.375 48.3126C370.16 48.0981 368.946 47.8837 367.694 47.6627C352.761 45.1306 338.032 44.7868 322.92 44.7599C319.667 44.7502 316.414 44.7191 313.16 44.6876C247.922 44.3563 184.165 69.9872 134 111Z" fill="white"/>
<path d="M1660.74 183.879C1701.86 182.988 1739.39 198.812 1769 227C1767.69 229.877 1766.26 232.008 1764.09 234.293C1763.5 234.915 1762.91 235.538 1762.3 236.179C1761.35 237.173 1761.35 237.173 1760.37 238.188C1759.02 239.611 1757.67 241.034 1756.32 242.457C1755.62 243.197 1754.91 243.936 1754.18 244.698C1751.96 247.041 1749.76 249.399 1747.55 251.762C1746.83 252.533 1746.12 253.304 1745.37 254.099C1743.98 255.595 1742.58 257.092 1741.19 258.591C1740.24 259.609 1740.24 259.609 1739.27 260.649C1738.71 261.248 1738.15 261.848 1737.57 262.466C1736 264 1736 264 1733 266C1732.37 265.443 1731.74 264.886 1731.09 264.313C1709.01 245.477 1682.77 237.623 1654 239C1637.05 240.462 1622.68 247.291 1609 257C1608.31 257.48 1607.63 257.959 1606.92 258.453C1597.8 265.526 1590.9 276.733 1586 287C1585.56 287.92 1585.12 288.841 1584.67 289.789C1573.37 315.113 1572.47 345.273 1582.39 371.173C1585.36 378.363 1589.47 384.702 1594 391C1594.49 391.696 1594.98 392.392 1595.49 393.109C1608.1 409.33 1630.34 417.481 1650 420C1674.28 421.442 1695.17 419.332 1716 406C1716.87 405.554 1716.87 405.554 1717.76 405.1C1720.68 403.409 1722.64 402.175 1723.65 398.854C1723.91 396.178 1723.94 393.575 1723.9 390.887C1723.92 389.597 1723.92 389.597 1723.94 388.281C1723.98 385.083 1723.95 381.885 1723.94 378.688C1723.96 371.531 1723.98 364.374 1724 357C1701.23 357 1678.46 357 1655 357C1655 340.17 1655 323.34 1655 306C1694.6 306 1734.2 306 1775 306C1775.21 325.243 1775.41 344.486 1775.62 364.313C1775.72 370.373 1775.81 376.433 1775.9 382.677C1775.95 390.118 1775.95 390.118 1775.95 393.609C1775.97 396.03 1776 398.451 1776.06 400.872C1776.52 423.874 1776.52 423.874 1770.28 430.888C1767.68 433.081 1767.68 433.081 1765 435C1763.18 436.557 1761.37 438.119 1759.56 439.688C1757.72 441.138 1755.86 442.576 1754 444C1753.15 444.667 1752.3 445.333 1751.42 446.02C1717.9 471.464 1676.46 476.909 1635.52 471.412C1601.61 466.355 1569.75 451.195 1548.28 423.809C1531.32 400.753 1520.97 372.331 1520.8 343.574C1520.79 342.793 1520.78 342.012 1520.78 341.208C1520.55 308.768 1520.55 308.768 1524 295C1524.2 294.174 1524.4 293.347 1524.6 292.496C1530.16 269.879 1539.66 248.693 1555 231C1555.67 230.193 1556.35 229.386 1557.04 228.555C1580.82 200.92 1615.22 187.476 1650.87 184.25C1654.16 184.075 1657.45 183.985 1660.74 183.879Z" fill="white"/>
<path d="M2152.49 268.879C2180.97 268.161 2206.6 278.428 2227.25 297.813C2250.04 321.796 2254.86 351.558 2254.13 383.383C2253.37 404.217 2244.4 425.18 2231 441C2230.22 441.996 2230.22 441.996 2229.43 443.012C2215.09 460.68 2191.88 470.086 2169.78 472.719C2142.95 474.716 2117.02 471.018 2096 453C2095.67 482.37 2095.34 511.74 2095 542C2077.84 542 2060.68 542 2043 542C2043 453.23 2043 364.46 2043 273C2059.17 273 2075.34 273 2092 273C2094.25 286.5 2094.25 286.5 2094 294C2094.46 293.576 2094.92 293.152 2095.4 292.715C2111.84 277.931 2130.4 269.953 2152.49 268.879ZM2112 335C2103.33 345.438 2098.28 359.01 2098.75 372.723C2100.39 387.907 2105.6 400.61 2117 411C2129.77 421.127 2144.12 423.622 2160 422C2173.97 419.413 2185.49 412.039 2193.79 400.516C2202.08 387.357 2203.96 372.522 2200.88 357.313C2197.32 343.692 2189.16 332.666 2177.03 325.508C2156.43 315.252 2128.19 317.563 2112 335Z" fill="white"/>
<path d="M276 102C286.23 102 296.46 102 307 102C307 123.12 307 144.24 307 166C309.64 165.67 312.28 165.34 315 165C318.63 165 322.26 165 326 165C326 144.21 326 123.42 326 102C336.23 102 346.46 102 357 102C357 123.45 357 144.9 357 167C359.97 167 362.94 167 366 167C368.731 167.258 371.363 167.561 374.062 168C375.177 168.18 375.177 168.18 376.314 168.365C387.218 170.346 397.572 174.344 408 178C408 191.86 408 205.72 408 220C404.284 218.761 401.038 217.642 397.559 216.012C388.577 211.912 379.756 208.325 370.125 206.062C369.332 205.876 368.538 205.689 367.72 205.497C354.825 202.681 341.978 201.587 328.812 201.625C328.095 201.626 327.378 201.626 326.639 201.627C314.73 201.668 303.463 202.611 292 206C290.897 206.321 290.897 206.321 289.771 206.649C273.627 211.511 259.915 219.246 247 230C245.691 231.062 245.691 231.062 244.355 232.145C217.567 254.883 205.399 289.974 202 324C201.699 329.314 201.609 334.616 201.625 339.938C201.626 340.649 201.626 341.361 201.627 342.095C201.756 379.388 212.54 415.033 239 442C239.71 442.735 240.421 443.47 241.152 444.227C257.51 460.053 278.101 467.721 300 472C300.783 472.177 301.567 472.353 302.374 472.535C338.798 478.985 376.55 467.144 409 452C409 464.54 409 477.08 409 490C391.468 498.182 391.468 498.182 385 500.25C383.887 500.614 383.887 500.614 382.751 500.985C374.459 503.613 365.733 506 357 506C357 528.11 357 550.22 357 573C346.77 573 336.54 573 326 573C326 551.88 326 530.76 326 509C319.73 509 313.46 509 307 509C307 530.12 307 551.24 307 573C296.77 573 286.54 573 276 573C276 550.23 276 527.46 276 504C273.36 503.67 270.72 503.34 268 503C233.837 494.116 202.513 469.476 184.428 439.385C174.787 422.621 167.99 404.934 164 386C163.712 384.66 163.712 384.66 163.418 383.293C160.711 369.679 160.759 355.825 160.75 342C160.749 341.089 160.749 340.177 160.748 339.238C160.764 325.923 161.192 313.059 164 300C164.166 299.157 164.333 298.315 164.504 297.447C170.907 265.225 186.178 238.194 208 214C209.013 212.877 209.013 212.877 210.047 211.73C226.731 194.226 249.989 180.263 273 173C273.99 173 274.98 173 276 173C276 149.57 276 126.14 276 102Z" fill="#0A0A0A"/>
<path d="M964.141 223.569C965.664 224.983 967.169 226.413 968.672 227.848C970.801 230.017 970.801 230.017 973 231C971.524 234.542 969.597 236.458 966.695 238.934C960.134 244.694 954.023 250.868 947.875 257.063C946.716 258.226 945.558 259.39 944.398 260.553C941.596 263.366 938.797 266.182 936 269C932.71 267.424 930.174 265.602 927.375 263.25C906.399 246.36 880.951 241.764 854.568 244.227C832.137 247.039 811.959 258.255 798 276C782.153 298.07 777.739 324.973 781.586 351.54C785.06 372.183 795.287 391.104 812 404C833.754 418.938 861.078 423.403 886.988 419.352C903.901 416.005 921.971 407.681 934.063 395.406C936 394 936 394 937.939 394.252C941.428 395.518 943.722 398.338 946.27 400.942C946.869 401.543 947.468 402.144 948.085 402.763C949.354 404.038 950.619 405.317 951.88 406.599C953.788 408.538 955.706 410.466 957.627 412.393C975 429.871 975 429.871 975 434C952.456 459.401 915.121 472.81 882 475C838.746 476.594 798.247 467.794 765.375 438.25C737.884 412.702 725.138 374.801 723.715 338.008C723.112 311.373 728.309 285.972 740 262C740.471 261.031 740.941 260.061 741.426 259.063C757.581 227.753 786.078 205.477 819.405 194.818C868.909 179.92 925.265 188.186 964.141 223.569Z" fill="white"/>
<path d="M316.054 44.6638C319.263 44.6876 322.471 44.6843 325.68 44.6777C343.103 44.7002 359.979 46.183 377.125 49.3125C378.327 49.5312 379.53 49.75 380.768 49.9753C390.091 51.7258 399.022 53.9673 408 57C408.864 57.2822 409.727 57.5643 410.617 57.855C462.284 74.7521 512.635 105.191 546.781 148.234C548.22 150.028 549.698 151.791 551.219 153.516C564.695 168.879 575.727 186.826 585 205C585.409 205.799 585.818 206.598 586.24 207.421C599.973 234.545 609.154 263.008 614 293C614.226 294.332 614.226 294.332 614.458 295.691C619.329 325.208 618.514 356.494 614 386C613.783 387.502 613.783 387.502 613.562 389.034C611.554 402.775 608.392 415.834 604 429C603.733 429.815 603.466 430.631 603.191 431.471C584.377 488.68 549.292 539.696 501 576C500.318 576.517 499.636 577.034 498.934 577.567C488.482 585.456 477.742 592.433 466.27 598.748C464.137 599.925 462.019 601.126 459.902 602.332C434.257 616.692 405.097 626.531 376.182 631.449C373.074 631.987 369.983 632.587 366.887 633.191C334.575 639.057 299.197 638.213 267 632C265.995 631.807 264.989 631.615 263.953 631.417C257.577 630.155 251.283 628.661 245 627C244.195 626.792 243.391 626.584 242.562 626.369C202.139 615.721 163.77 595.076 132 568C130.916 567.101 129.831 566.202 128.746 565.305C116.9 555.428 105.662 544.807 96.1055 532.668C93.8075 529.756 91.4082 526.946 89 524.125C83.9166 518.011 79.3368 511.66 75 505C74.5113 504.251 74.0226 503.502 73.519 502.73C60.926 483.277 50.9664 463.179 42.9165 441.456C42.1498 439.401 41.3503 437.359 40.543 435.32C34.6214 419.943 31.4271 403.451 28.6875 387.25C28.5282 386.312 28.3689 385.373 28.2048 384.407C25.9407 370.273 25.7852 356.202 25.7598 341.92C25.7501 338.667 25.719 335.414 25.6875 332.16C25.3562 266.922 50.9871 203.165 92 153C92.6574 152.186 92.6574 152.186 93.3281 151.355C105.586 136.249 119.464 121.744 135 110C136.258 109.004 137.514 108.007 138.77 107.008C175.131 78.3071 216.935 59.9374 262 50C262.653 49.8466 263.306 49.6932 263.979 49.5351C281.167 45.5601 298.461 44.525 316.054 44.6638ZM271.562 65.4443C269.018 65.9962 266.468 66.4784 263.906 66.9453C202.366 78.5006 142.271 115.535 104 165C102.803 166.506 102.803 166.506 101.582 168.043C69.8661 208.205 51.8456 255.035 44.4014 305.357C44.1321 307.13 43.8178 308.897 43.4607 310.654C42.8084 315.391 42.8373 320.078 42.832 324.855C42.8287 325.912 42.8254 326.968 42.8219 328.056C42.8169 330.295 42.8145 332.533 42.8147 334.771C42.8125 338.131 42.7944 341.49 42.7754 344.85C42.7322 361.094 43.4058 377.124 46.8125 393.062C46.985 393.889 47.1575 394.715 47.3352 395.566C49.1775 404.162 51.394 412.605 54 421C54.2894 421.94 54.5788 422.88 54.877 423.849C62.632 448.615 73.5092 472.42 88 494C88.4064 494.608 88.8128 495.215 89.2314 495.841C102.514 515.488 118.589 535.462 137.188 550.312C140.076 552.63 142.943 554.95 145.742 557.375C176.473 583.935 215.721 602.421 255 612C255.737 612.18 256.474 612.36 257.234 612.546C262.793 613.873 268.375 614.991 274 616C274.83 616.152 275.66 616.305 276.516 616.462C330.192 625.876 386.442 616.447 436 595C436.815 594.648 437.629 594.296 438.469 593.933C464.607 582.481 488.564 565.972 509.34 546.473C511.494 544.471 513.68 542.568 515.938 540.688C526.581 531.413 535.572 520.271 544 509C544.418 508.444 544.837 507.888 545.268 507.314C552.514 497.623 558.916 487.454 565 477C565.39 476.332 565.781 475.664 566.183 474.976C576.582 456.94 584.448 437.045 590 417C590.42 415.599 590.84 414.198 591.262 412.797C595.34 398.793 597.273 384.459 599 370C599.106 369.149 599.212 368.298 599.321 367.421C600.355 357.924 600.244 348.353 600.25 338.812C600.251 337.877 600.251 336.941 600.252 335.976C600.235 321.457 599.685 307.306 597 293C596.743 291.595 596.743 291.595 596.48 290.161C587.077 240.194 564.564 192.737 530.039 155.223C528.187 153.204 526.402 151.147 524.625 149.063C516.815 140.137 508.284 132.357 499 125C497.855 124.055 496.712 123.109 495.57 122.16C481.168 110.272 465.515 100.669 449 92C448.239 91.5943 447.477 91.1885 446.693 90.7705C435.219 84.7258 423.406 80.2015 411.125 76.125C410.435 75.8958 409.746 75.6666 409.035 75.4305C395.477 70.9555 381.879 67.039 367.75 64.8125C366.765 64.6482 365.78 64.4838 364.766 64.3145C354.491 62.6448 344.309 61.8442 333.902 61.7617C332.878 61.752 331.853 61.7423 330.798 61.7323C327.511 61.7076 324.224 61.6948 320.938 61.6875C319.817 61.6849 318.696 61.6823 317.541 61.6796C301.923 61.6757 286.882 62.1158 271.562 65.4443Z" fill="#0A0A0A"/>
<path d="M1893.34 267.844C1918.19 267.219 1938.84 274.894 1957 292C1957.66 285.73 1958.32 279.46 1959 273C1975.5 273 1992 273 2009 273C2009 337.68 2009 402.36 2009 469C1992.83 469 1976.66 469 1960 469C1959.28 463.931 1958.89 459.61 1958.94 454.563C1958.95 453.326 1958.96 452.09 1958.96 450.816C1958.98 449.422 1958.98 449.422 1959 448C1958.07 448.99 1958.07 448.99 1957.12 450C1940.01 466.826 1918.85 474.26 1895.04 474.249C1869.83 473.932 1845.78 466.097 1827 449C1826.35 448.415 1825.69 447.83 1825.02 447.227C1813.81 436.662 1806.48 421.936 1802.12 407.313C1801.93 406.673 1801.74 406.034 1801.55 405.375C1798.4 393.971 1797.64 382.535 1797.69 370.75C1797.69 370.071 1797.69 369.392 1797.69 368.692C1797.83 339.07 1806.54 313.938 1827.25 292.695C1845.04 275.913 1869.42 268.964 1893.34 267.844ZM1882 320C1880.75 320.493 1880.75 320.493 1879.47 320.996C1867.44 326.362 1858.42 336.075 1853.72 348.344C1848.16 365.64 1848.67 382.753 1856.19 399.375C1863.38 412.423 1874.92 420.816 1889 425C1902.16 428.735 1917.92 426.587 1929.91 420.527C1942.81 413.015 1950.61 401.585 1954.87 387.438C1958.84 369.494 1955.74 352.469 1946 337C1938.59 326.282 1927.1 320.631 1914.75 317.414C1904.05 315.804 1892.09 315.955 1882 320Z" fill="white"/>
<path d="M2447 289C2447.7 289.542 2448.41 290.083 2449.13 290.641C2464.37 302.949 2472.81 322.297 2477 341C2477.19 341.829 2477.38 342.658 2477.57 343.511C2479.28 352.216 2479.27 360.826 2479.21 369.659C2479.19 372.221 2479.19 374.783 2479.19 377.346C2479.18 378.974 2479.17 380.602 2479.17 382.231C2479.17 382.997 2479.17 383.764 2479.16 384.554C2479.12 389.884 2479.12 389.884 2478 391C2476.1 391.109 2474.2 391.147 2472.3 391.158C2471.06 391.168 2469.82 391.178 2468.55 391.188C2467.16 391.194 2465.78 391.2 2464.39 391.206C2462.94 391.215 2461.5 391.225 2460.05 391.236C2456.1 391.263 2452.16 391.284 2448.21 391.304C2444.1 391.325 2439.98 391.353 2435.86 391.38C2428.06 391.43 2420.26 391.475 2412.46 391.518C2403.58 391.567 2394.7 391.622 2385.82 391.677C2367.54 391.791 2349.27 391.898 2331 392C2331.6 393.581 2332.21 395.158 2332.82 396.735C2333.16 397.613 2333.5 398.492 2333.85 399.398C2338.24 409.345 2346.25 415.796 2356.09 419.899C2357.05 420.262 2358.01 420.626 2359 421C2359.84 421.323 2360.67 421.645 2361.53 421.977C2380.66 427.996 2402.92 424.425 2420.75 416.063C2424.21 414.205 2427.09 412.202 2430 409.563C2430.99 408.717 2431.98 407.872 2433 407C2436.31 407.265 2438 408.619 2440.32 410.896C2440.94 411.504 2441.56 412.111 2442.21 412.737C2442.87 413.398 2443.53 414.058 2444.21 414.739C2444.89 415.416 2445.58 416.093 2446.28 416.791C2447.73 418.223 2449.17 419.66 2450.6 421.101C2452.81 423.308 2455.03 425.493 2457.26 427.678C2458.66 429.072 2460.06 430.467 2461.46 431.864C2462.13 432.518 2462.8 433.172 2463.49 433.846C2464.1 434.463 2464.7 435.081 2465.33 435.716C2465.87 436.255 2466.41 436.794 2466.97 437.349C2468 439 2468 439 2467.77 441.087C2463.2 452.426 2443.37 460.505 2433 465C2400.01 477.89 2362.7 477.517 2330 464C2308.4 454.341 2291.82 435.909 2283.12 414.106C2272.01 384.494 2273.34 351.394 2285.49 322.446C2295.73 300.459 2313.98 284.293 2336.38 275.278C2371.93 262.737 2416.97 264.382 2447 289ZM2339 332C2334.15 338.502 2334.15 338.502 2332 346C2363.02 346 2394.04 346 2426 346C2424.61 336.244 2420.75 329.647 2413.05 323.461C2391.39 308.057 2356.48 312.194 2339 332Z" fill="white"/>
<path d="M1151 293C1171.94 311.691 1182.69 336.253 1185 364C1186.38 391.416 1179.45 417.542 1162 439C1161.34 439.839 1160.67 440.679 1159.99 441.543C1144.72 459.746 1121.18 469.94 1097.91 472.719C1068.96 474.801 1039.12 470.583 1016.32 451.106C1015.56 450.411 1014.79 449.716 1014 449C1012.77 447.912 1012.77 447.912 1011.52 446.801C993.492 429.891 982.841 404.665 982 380C981.948 378.701 981.897 377.401 981.844 376.063C981.024 345.516 990.786 318.152 1011.81 295.75C1049.01 260.34 1112.38 259.92 1151 293ZM1045.04 335.231C1041.63 339.861 1039.18 344.692 1037 350C1036.66 350.815 1036.32 351.63 1035.97 352.469C1031.01 366.977 1032.74 385.168 1039.36 398.793C1046.26 411.03 1055.46 419.482 1069.14 423.305C1083.33 425.861 1097.31 424.954 1109.75 417.25C1111.19 416.199 1112.61 415.116 1114 414C1114.69 413.448 1115.38 412.897 1116.09 412.328C1125.88 403.551 1131.46 389.595 1132.35 376.656C1133.07 360.038 1129.03 346.017 1118.35 332.985C1109.84 323.775 1097.61 318.083 1085.11 317.528C1069.16 317.315 1055.39 323.037 1045.04 335.231Z" fill="white"/>
<path d="M1463.3 290.469C1475.23 301.668 1482.59 314.485 1487.38 330C1487.73 331.154 1487.73 331.154 1488.1 332.332C1492.73 348.507 1492.27 364.956 1492.2 381.621C1492.19 384.178 1492.19 386.735 1492.19 389.292C1492.18 395.294 1492.16 401.297 1492.14 407.299C1492.12 414.817 1492.11 422.335 1492.1 429.853C1492.08 443.236 1492.04 456.618 1492 470C1474.84 470 1457.68 470 1440 470C1439.96 457.774 1439.96 457.774 1439.92 445.301C1439.89 439.459 1439.86 433.618 1439.83 427.777C1439.78 420.223 1439.75 412.668 1439.73 405.114C1439.71 398.487 1439.68 391.861 1439.63 385.234C1439.62 382.714 1439.61 380.193 1439.61 377.672C1439.64 351.916 1439.64 351.916 1427.12 329.969C1417.42 320.996 1406.88 318.48 1393.89 318.687C1385.02 319.4 1377.36 321.884 1370.59 327.73C1369 329 1369 329 1366 330C1364.94 331.844 1364.94 331.844 1364 334C1363.05 335.363 1362.1 336.717 1361.12 338.062C1354.27 348.219 1352.86 358.724 1352.79 370.687C1352.78 371.751 1352.77 372.815 1352.76 373.911C1352.73 377.417 1352.71 380.923 1352.68 384.43C1352.66 386.865 1352.64 389.3 1352.62 391.735C1352.57 398.137 1352.52 404.539 1352.47 410.94C1352.41 418.625 1352.34 426.31 1352.28 433.996C1352.18 445.664 1352.09 457.332 1352 469C1334.51 469 1317.02 469 1299 469C1299 404.32 1299 339.64 1299 273C1314.84 273 1330.68 273 1347 273C1347.99 280.26 1348.98 287.52 1350 295C1352.64 292.69 1355.28 290.38 1358 288C1389.42 264.943 1433.28 264.804 1463.3 290.469Z" fill="white"/>
<path d="M395 245C395 258.86 395 272.72 395 287C391.097 285.699 387.312 284.35 383.495 282.842C372.005 278.35 360.369 275.489 348 275C346.823 274.951 346.823 274.951 345.623 274.901C325.924 274.188 309.139 276.535 293.812 290.062C281.592 301.474 275.2 316.007 274.629 332.562C274.577 335.334 274.561 338.103 274.563 340.875C274.562 341.546 274.562 342.218 274.561 342.91C274.626 361.088 278.424 377.389 290.957 391.148C303.763 403.551 318.852 406.299 336.046 406.242C343.272 406.115 350.122 405.292 357 403C357.33 389.8 357.66 376.6 358 363C344.8 363 331.6 363 318 363C318 350.79 318 338.58 318 326C329.196 325.977 340.391 325.959 351.587 325.948C356.785 325.943 361.983 325.936 367.181 325.924C372.193 325.914 377.205 325.908 382.217 325.905C384.134 325.903 386.051 325.9 387.967 325.894C390.642 325.887 393.317 325.886 395.992 325.886C396.793 325.883 397.593 325.879 398.418 325.875C403.886 325.886 403.886 325.886 405 327C405.095 328.341 405.122 329.686 405.12 331.03C405.122 332.332 405.122 332.332 405.124 333.661C405.121 334.62 405.117 335.58 405.114 336.568C405.114 337.573 405.114 338.578 405.114 339.613C405.113 342.952 405.105 346.29 405.098 349.629C405.096 351.937 405.094 354.245 405.093 356.552C405.09 362.64 405.08 368.728 405.069 374.815C405.058 381.022 405.054 387.229 405.049 393.435C405.038 405.624 405.021 417.812 405 430C402.129 431.296 399.255 432.585 396.38 433.873C395.572 434.238 394.765 434.603 393.933 434.978C387.983 437.639 382.077 439.783 375.75 441.375C374.899 441.608 374.048 441.842 373.172 442.082C360.099 445.525 347.179 446.35 333.733 446.316C331.135 446.312 328.539 446.336 325.941 446.361C312.341 446.414 299.237 445.077 286.375 440.312C285.675 440.057 284.976 439.801 284.255 439.538C261.631 430.932 243.778 414.324 233.719 392.285C227.479 377.491 224.601 360.852 224.688 344.875C224.692 343.79 224.697 342.706 224.702 341.588C225.076 315.611 233.062 290.264 251 271C252.317 269.581 252.317 269.581 253.66 268.133C289.022 230.966 349.116 227.793 395 245Z" fill="#0A0A0A"/>
<path d="M1211 272C1228.49 272 1245.98 272 1264 272C1264 336.68 1264 401.36 1264 468C1246.51 468 1229.02 468 1211 468C1211 403.32 1211 338.64 1211 272Z" fill="white"/>
<path d="M1251.12 194.625C1253.15 195.75 1253.15 195.75 1255 197C1255.63 197.413 1256.26 197.825 1256.91 198.25C1263.28 203.018 1266.8 210.222 1268 218C1268.86 227.842 1266.99 236.507 1260.67 244.246C1254.46 250.767 1247.53 253.241 1238.64 253.961C1229.88 254.09 1221.72 251.315 1215.21 245.363C1209.02 238.576 1206.56 230.541 1206.72 221.406C1207.57 214.037 1209.68 205.852 1215.07 200.5C1225.34 192.501 1238.71 189.615 1251.12 194.625Z" fill="white"/>
</svg>
