<svg width="22" height="24" viewBox="0 0 22 24" fill="none" xmlns="http://www.w3.org/2000/svg">
<g clip-path="url(#clip0_670_29)">
<path fill-rule="evenodd" clip-rule="evenodd" d="M8.59032 1.43025C7.00797 2.20741 5.71339 2.86504 5.71367 2.89179C5.71437 2.96082 9.51135 4.77383 9.64612 4.76941C9.70742 4.76748 10.1521 4.57447 10.6343 4.34056L11.5112 3.91534L12.4688 4.37943L13.4264 4.84362L14.9946 4.17923C17.3576 3.1781 17.6031 3.06839 17.5646 3.03153C17.5135 2.98263 16.666 2.55334 14.3665 1.41194C13.2552 0.86029 12.1766 0.319415 11.9695 0.209968C11.7624 0.100522 11.5648 0.0124803 11.5302 0.0141845C11.4957 0.0158887 10.1727 0.653126 8.59032 1.43025ZM1.65015 4.81866L0.00294123 5.62086V9.14157C0.00294123 11.078 0.0245707 12.6622 0.051102 12.6622C0.0775414 12.6622 0.887972 12.331 1.85201 11.9262L3.60483 11.1901V7.47908L4.46136 7.91906C5.1214 8.25779 5.78184 8.59584 6.44267 8.93319L7.5674 9.50734L8.06788 9.29397C8.38176 9.15993 8.69501 9.02459 9.00762 8.88796C9.24919 8.78189 9.8422 8.53007 10.3254 8.32825C10.8085 8.12634 11.2558 7.9233 11.3192 7.87703C11.4035 7.81556 10.3762 7.28032 7.51951 5.89724C5.36622 4.85468 3.53534 4.005 3.45091 4.00907C3.36647 4.01314 2.55614 4.37741 1.65015 4.81866ZM17.8615 5.04394C16.7396 5.52144 15.8209 5.93121 15.8199 5.95457C15.8189 5.97791 16.4304 6.32069 17.1787 6.71619C17.9271 7.11177 18.5394 7.45658 18.5394 7.48254C18.5394 7.50845 17.8772 7.81097 17.0679 8.15493C16.2585 8.49881 14.2128 9.36988 12.5216 10.0906L6.85528 12.5055C5.42991 13.113 4.1451 13.6606 4.00016 13.7225C1.08876 14.9651 0.288536 15.3099 0.178642 15.3691C0.0681359 15.4287 0.0431058 15.7749 0.0234371 17.5124L-3.05176e-05 19.5848L1.47298 20.2924L2.94596 21L4.98847 20.1309C6.11188 19.6529 7.03098 19.2368 7.03098 19.2062C7.03098 19.1756 6.82339 19.0481 6.56978 18.9226C6.31604 18.7972 5.79228 18.5196 5.40574 18.3055C5.01923 18.0915 4.63382 17.8951 4.5492 17.869C4.46461 17.8431 4.39663 17.7976 4.39801 17.768C4.39942 17.7384 5.29885 17.3356 6.39662 16.8728C8.52883 15.974 10.1606 15.2812 13.6637 13.7876C15.2302 13.1199 16.7968 12.4525 18.3637 11.7856C19.7407 11.1996 21.3418 10.5151 21.9216 10.2646L22.9758 9.80919L22.9993 7.71325L23.0228 5.6174L21.5288 4.8944C20.7071 4.49679 20.0047 4.17244 19.9679 4.17363C19.9311 4.17472 18.9832 4.56632 17.8615 5.04394ZM22.5756 12.6053C22.3554 12.7067 21.9206 12.8965 21.6092 13.0271C21.2979 13.1577 20.7071 13.409 20.2964 13.5857L19.5497 13.9068L19.5326 15.7469C19.5232 16.7589 19.4837 17.5824 19.4448 17.577C19.3564 17.5646 17.9569 16.8879 16.55 16.1772C15.5346 15.6643 15.4708 15.6439 15.2322 15.7553C15.0943 15.8197 14.2699 16.1683 13.4001 16.5301C12.5304 16.8918 11.7905 17.2114 11.7557 17.2404C11.721 17.2693 13.4714 18.1637 15.6456 19.2282L19.5986 21.1636L21.2873 20.34C22.2159 19.8871 23.0056 19.474 23.042 19.422C23.1238 19.3051 23.1168 12.4049 23.0349 12.4142C23.0025 12.4179 22.7957 12.5039 22.5756 12.6053ZM13.2244 20.7044C12.9315 20.8232 12.6387 20.9421 12.3459 21.0611C11.4619 21.4217 11.6351 21.4337 10.5834 20.9401C9.88288 20.6113 9.58093 20.5098 9.44986 20.5591C9.35155 20.596 8.50546 20.9549 7.56951 21.3566C6.63362 21.7583 5.83542 22.087 5.79571 22.087C5.40304 22.087 6.05585 22.4547 8.57488 23.6527L11.5291 25.0576L12.7721 24.4791C13.4558 24.1608 14.8346 23.5236 15.8364 23.063C16.8381 22.6023 17.6452 22.2134 17.6301 22.1987C17.6149 22.1841 16.7756 21.7778 15.7649 21.2957L13.9273 20.4194L13.2244 20.7044Z" fill="white"/>
</g>
<defs>
<clipPath id="clip0_670_29">
<rect width="22" height="24" fill="white"/>
</clipPath>
</defs>
</svg>
