<?xml version="1.0" encoding="UTF-8"?>
<svg version="1.1" xmlns="http://www.w3.org/2000/svg" width="180" height="180">
<path d="M0 0 C59.4 0 118.8 0 180 0 C180 59.4 180 118.8 180 180 C120.6 180 61.2 180 0 180 C0 120.6 0 61.2 0 0 Z " fill="#FBFBFB" transform="translate(0,0)"/>
<path d="M0 0 C59.4 0 118.8 0 180 0 C180 59.4 180 118.8 180 180 C120.6 180 61.2 180 0 180 C0 120.6 0 61.2 0 0 Z M28 37 C13.08640573 55.89278198 7.63045263 76.29922188 9 100 C9.62527132 104.48724121 10.635539 108.68408687 12 113 C12.29003906 113.93972656 12.58007812 114.87945312 12.87890625 115.84765625 C16.60333137 126.9274314 22.32767063 136.22515086 30 145 C30.53109375 145.61488281 31.0621875 146.22976562 31.609375 146.86328125 C44.41329122 160.64967619 64.21757518 170.51958358 83.09375 171.3359375 C105.62052998 171.71701018 127.08767622 166.83089633 144 151 C144.77730469 150.28972656 145.55460938 149.57945312 146.35546875 148.84765625 C161.13264073 134.76355096 170.49881258 115.17609751 171.203125 94.65234375 C171.58779658 71.44709181 164.86961832 50.76217489 148.75561523 33.66015625 C133.27945946 17.8563489 113.82198281 9.26437328 91.70898438 8.70800781 C67.46325199 8.48291481 44.07244281 18.57275743 28 37 Z " fill="#3B3B3B" transform="translate(0,0)"/>
<path d="M0 0 C2.0625 1.6015625 2.0625 1.6015625 3 4 C4.14836996 17.02682174 0.26754712 31.04298534 -1.95089722 43.78358459 C-2.81623287 48.80560975 -3.59246397 53.83751918 -4.3359375 58.87890625 C-4.44462158 59.60806244 -4.55330566 60.33721863 -4.6652832 61.08847046 C-5.30408776 65.37291163 -5.30408776 65.37291163 -5.92199707 69.66040039 C-6.20133479 71.63046642 -6.49492114 73.59849604 -6.7890625 75.56640625 C-7.03197021 77.25165405 -7.03197021 77.25165405 -7.27978516 78.97094727 C-8.11420754 82.48032982 -9.41751294 85.41751294 -12 88 C-19.57617897 89.34687626 -24.89585898 84.99190051 -31 81 C-32.24644287 80.18764893 -32.24644287 80.18764893 -33.51806641 79.35888672 C-56.31877507 64.44030414 -56.31877507 64.44030414 -57.95703125 60.9765625 C-58.06445397 56.03511757 -52.81357685 51.86501765 -49.65234375 48.50390625 C-45.18984668 43.97243705 -40.5829906 39.66767781 -35.75390625 35.53125 C-33.38171921 33.4602092 -31.19377843 31.25830133 -29 29 C-28.34 28.34 -27.68 27.68 -27 27 C-27 26.01 -27 25.02 -27 24 C-31.84158177 25.59828279 -35.54632258 28.34975856 -39.625 31.3125 C-41.1346718 32.39166777 -42.64511896 33.46975151 -44.15625 34.546875 C-44.94386719 35.10955078 -45.73148438 35.67222656 -46.54296875 36.25195312 C-50.71531061 39.22035214 -54.91365048 42.14978084 -59.125 45.0625 C-59.90568848 45.61010986 -60.68637695 46.15771973 -61.49072266 46.72192383 C-70.21671178 52.73877805 -76.31626774 54.95196083 -87 53 C-92.42436074 51.52354678 -98.16289699 49.93998234 -103 47 C-103.75 44.375 -103.75 44.375 -104 42 C-96.56749595 36.89075597 -88.46103163 33.59574012 -80.1875 30.125 C-78.64179348 29.47075182 -77.09638853 28.81579077 -75.55126953 28.16015625 C-72.33168074 26.79454833 -69.11080805 25.43203149 -65.88916016 24.07128906 C-61.08929946 22.0411719 -56.29914929 19.98892008 -51.51171875 17.9296875 C-50.74121689 17.59840851 -49.97071503 17.26712952 -49.17686462 16.92581177 C-46.19901827 15.64524749 -43.22131716 14.364347 -40.24398804 13.08258057 C-36.86124356 11.62712312 -33.47611509 10.17794997 -30.08496094 8.7421875 C-27.21531188 7.52643809 -24.36379137 6.27520688 -21.51660156 5.0078125 C-20.02427274 4.35895118 -18.53176451 3.71050234 -17.0390625 3.0625 C-16.36684662 2.75562256 -15.69463074 2.44874512 -15.00204468 2.13256836 C-10.04513416 0.01115765 -5.38627017 -0.75354312 0 0 Z " fill="#3B3B3B" transform="translate(135,48)"/>
<path d="M0 0 C26.4 0 52.8 0 80 0 C80 0.33 80 0.66 80 1 C79.12859375 1.17015625 78.2571875 1.3403125 77.359375 1.515625 C60.21899061 5.00306252 45.48494985 10.57775759 32 22 C31.00419922 22.77923828 31.00419922 22.77923828 29.98828125 23.57421875 C12.96666963 37.38546747 4.17624864 58.83615381 1 80 C0.67 80 0.34 80 0 80 C0 53.6 0 27.2 0 0 Z " fill="#FBFBFB" transform="translate(0,0)"/>
<path d="M0 0 C1.96086523 2.94129785 2.52099521 5.08380188 3.19091797 8.49609375 C5.19166694 18.59661273 8.90103629 27.09828694 14 36 C14.48339844 36.85078125 14.96679688 37.7015625 15.46484375 38.578125 C27.01449693 57.19147911 46.85104499 70.66361029 68 76 C71.98593151 76.79444683 75.97236681 77.45726929 80 78 C80 78.33 80 78.66 80 79 C53.6 79 27.2 79 0 79 C0 52.93 0 26.86 0 0 Z " fill="#FBFBFB" transform="translate(0,101)"/>
<path d="M0 0 C26.07 0 52.14 0 79 0 C79 26.4 79 52.8 79 80 C78.67 80 78.34 80 78 80 C77.86464844 79.030625 77.72929687 78.06125 77.58984375 77.0625 C74.06158123 54.26228771 62.26023778 33.32327871 44 19 C30.28984161 9.38347963 16.19375666 4.33285549 0 1 C0 0.67 0 0.34 0 0 Z " fill="#FBFBFB" transform="translate(101,0)"/>
<path d="M0 0 C0.33 0 0.66 0 1 0 C1 26.07 1 52.14 1 79 C-25.07 79 -51.14 79 -78 79 C-78 78.67 -78 78.34 -78 78 C-77.17757812 77.81824219 -76.35515625 77.63648438 -75.5078125 77.44921875 C-71.99862464 76.65904366 -68.49908929 75.83367564 -65 75 C-64.17757812 74.81824219 -63.35515625 74.63648438 -62.5078125 74.44921875 C-45.52616476 70.13035678 -29.58038145 58.81327579 -19 45 C-18.505 44.01 -18.505 44.01 -18 43 C-17.34 43 -16.68 43 -16 43 C-15.62488281 41.98099609 -15.62488281 41.98099609 -15.2421875 40.94140625 C-14.05425013 38.12846022 -12.66917543 35.50141477 -11.18212891 32.83691406 C-5.31694637 22.29854914 -1.78980742 11.96344961 0 0 Z " fill="#FBFBFB" transform="translate(179,101)"/>
<path d="M0 0 C1.37432457 3.81756824 0.67975039 7.07255329 0 11 C-0.66 11 -1.32 11 -2 11 C-2 11.66 -2 12.32 -2 13 C-4.33366933 15.01178391 -6.04785514 16.01595171 -9 17 C-9.33 17.66 -9.66 18.32 -10 19 C-12 18 -12 18 -13 16 C-13 17.32 -13 18.64 -13 20 C-15.95091465 24.05750764 -20.15729243 26.03145849 -25 27 C-27.6875 26.125 -27.6875 26.125 -30 25 C-32.7336432 25.29519768 -32.7336432 25.29519768 -35 26 C-35.33 25.01 -35.66 24.02 -36 23 C-35.26136719 22.70867187 -34.52273437 22.41734375 -33.76171875 22.1171875 C-20.20277108 16.63847675 -10.27424301 10.27424301 0 0 Z " fill="#3C3C3C" transform="translate(150,144)"/>
<path d="M0 0 C0.99 0.33 1.98 0.66 3 1 C2.52963147 5.23331673 -0.05380504 7.24688093 -3 10 C-4.44149859 11.43349026 -5.87881804 12.87119207 -7.3125 14.3125 C-8.54166667 15.54166667 -9.77083333 16.77083333 -11 18 C-12.79640787 14.63173525 -13 12.81739679 -13 9 C-10.9257235 7.26009332 -8.92115074 5.75492515 -6.6875 4.25 C-6.09259766 3.82589844 -5.49769531 3.40179688 -4.88476562 2.96484375 C-3.13671875 1.765625 -3.13671875 1.765625 0 0 Z M-14 11 C-14 11.66 -14 12.32 -14 13 C-14.66 13 -15.32 13 -16 13 C-16.33 13.66 -16.66 14.32 -17 15 C-17.99 14.67 -18.98 14.34 -20 14 C-16.25 11 -16.25 11 -14 11 Z " fill="#F1F1F1" transform="translate(106,71)"/>
<path d="M0 0 C0.66 0.66 1.32 1.32 2 2 C1.67 2.99 1.34 3.98 1 5 C1.33 5.33 1.66 5.66 2 6 C2.99 5.67 3.98 5.34 5 5 C3.36047417 9.6393176 0.93128948 13.63855858 -1.625 17.8125 C-2.04523437 18.50537109 -2.46546875 19.19824219 -2.8984375 19.91210938 C-3.9289467 21.61010748 -4.96401681 23.30533614 -6 25 C-7.95624014 21.08751972 -7.37017984 16.27557719 -7 12 C-5.5 8.875 -5.5 8.875 -4 7 C-4 6.67 -4 6.34 -4 6 C-3.67449498 4.33178677 -3.34153937 2.66500443 -3 1 C-2.01 0.67 -1.02 0.34 0 0 Z " fill="#383838" transform="translate(21,34)"/>
<path d="M0 0 C0.79664063 0.27714844 1.59328125 0.55429688 2.4140625 0.83984375 C3.47367188 1.20207031 4.53328125 1.56429687 5.625 1.9375 C6.66914062 2.29714844 7.71328125 2.65679687 8.7890625 3.02734375 C11.85970286 3.95750123 14.827478 4.54746308 18 5 C17.175 5.78375 16.35 6.5675 15.5 7.375 C12.77011494 9.63721264 12.77011494 9.63721264 13 12 C10.1875 12.6875 10.1875 12.6875 7 13 C5.125 11.5625 5.125 11.5625 4 10 C4.33 9.01 4.66 8.02 5 7 C4.34 7 3.68 7 3 7 C1 7 -1 7 -3 7 C-2.34 6.67 -1.68 6.34 -1 6 C-0.34227572 2.97065509 -0.34227572 2.97065509 0 0 Z " fill="#424242" transform="translate(57,164)"/>
<path d="M0 0 C2.5 -0.3125 2.5 -0.3125 5 0 C5.99 0 6.98 0 8 0 C8.12375 0.639375 8.2475 1.27875 8.375 1.9375 C8.58125 2.618125 8.7875 3.29875 9 4 C9.66 4.33 10.32 4.66 11 5 C8.75335738 6.31855095 6.50302694 7.62993972 4.25 8.9375 C3.61578125 9.31068359 2.9815625 9.68386719 2.328125 10.06835938 C-0.76291632 11.85536764 -3.51467668 13.24885273 -7 14 C-3.31597905 9.32029771 -1.71553681 7.90517894 4 6 C3.67 5.01 3.34 4.02 3 3 C1.68 3.99 0.36 4.98 -1 6 C-1.66 5.67 -2.32 5.34 -3 5 C-1.8125 2.5 -1.8125 2.5 0 0 Z " fill="#313131" transform="translate(48,10)"/>
<path d="M0 0 C-6.67137641 5.81531484 -13.60843244 10.94735975 -22 14 C-22.99 13.67 -23.98 13.34 -25 13 C-23.8553125 12.319375 -23.8553125 12.319375 -22.6875 11.625 C-20.76367186 10.46175508 -18.87058776 9.2470585 -17 8 C-16.278125 7.54625 -15.55625 7.0925 -14.8125 6.625 C-14.214375 6.08875 -13.61625 5.5525 -13 5 C-13 3.68 -13 2.36 -13 1 C-11.68 0.67 -10.36 0.34 -9 0 C-8.67 1.32 -8.34 2.64 -8 4 C-7.67 3.01 -7.34 2.02 -7 1 C-2.55696203 -1.27848101 -2.55696203 -1.27848101 0 0 Z " fill="#373737" transform="translate(148,159)"/>
<path d="M0 0 C0.66 0.99 1.32 1.98 2 3 C1.67 3.33 1.34 3.66 1 4 C1.66 4 2.32 4 3 4 C3.33 3.01 3.66 2.02 4 1 C4.99 1.66 5.98 2.32 7 3 C7 3.99 7 4.98 7 6 C6.2575 6.0825 5.515 6.165 4.75 6.25 C1.87025485 6.77783918 1.87025485 6.77783918 0.0625 9.0625 C-2 11 -2 11 -5.25 11.25 C-6.1575 11.1675 -7.065 11.085 -8 11 C-7.67 10.34 -7.34 9.68 -7 9 C-6.34 9 -5.68 9 -5 9 C-3.75453595 6.50907189 -4.2232422 5.58919267 -5 3 C-3.35 2.01 -1.7 1.02 0 0 Z " fill="#404040" transform="translate(46,11)"/>
<path d="M0 0 C0.33 1.32 0.66 2.64 1 4 C-0.98 3.34 -2.96 2.68 -5 2 C-4.67 2.66 -4.34 3.32 -4 4 C-4.66 4 -5.32 4 -6 4 C-6 4.66 -6 5.32 -6 6 C-6.721875 5.62875 -7.44375 5.2575 -8.1875 4.875 C-11.66249987 3.79388893 -12.7496301 4.6314232 -16 6 C-16.99 5.34 -17.98 4.68 -19 4 C-12.37384327 0.90133798 -7.32627475 -0.47266289 0 0 Z " fill="#454545" transform="translate(135,48)"/>
<path d="M0 0 C0.66 0.66 1.32 1.32 2 2 C1.67 2.99 1.34 3.98 1 5 C0.65179959 6.66362417 0.31595508 8.32995171 0 10 C-3.66666667 10 -7.33333333 10 -11 10 C-5.555 5.05 -5.555 5.05 0 0 Z " fill="#414141" transform="translate(34,19)"/>
<path d="M0 0 C1 3 1 3 0.00390625 5.26171875 C-0.47175781 6.06222656 -0.94742188 6.86273438 -1.4375 7.6875 C-1.91058594 8.49574219 -2.38367188 9.30398437 -2.87109375 10.13671875 C-3.42990234 11.05904297 -3.42990234 11.05904297 -4 12 C-4.33 11.34 -4.66 10.68 -5 10 C-5.66 10 -6.32 10 -7 10 C-7.33 9.34 -7.66 8.68 -8 8 C-8.99 8.495 -8.99 8.495 -10 9 C-9.67 7.68 -9.34 6.36 -9 5 C-7.68 5 -6.36 5 -5 5 C-4.67 4.01 -4.34 3.02 -4 2 C-3.01 2 -2.02 2 -1 2 C-0.67 1.34 -0.34 0.68 0 0 Z " fill="#313131" transform="translate(172,123)"/>
<path d="M0 0 C0 0.66 0 1.32 0 2 C-0.99 2.66 -1.98 3.32 -3 4 C-3 4.66 -3 5.32 -3 6 C-5 7 -7 8 -9 9 C-9 8.01 -9 7.02 -9 6 C-9.99 5.67 -10.98 5.34 -12 5 C-12.33 4.01 -12.66 3.02 -13 2 C-11.20873548 1.66451233 -9.41697413 1.33167645 -7.625 1 C-6.62726563 0.814375 -5.62953125 0.62875 -4.6015625 0.4375 C-2 0 -2 0 0 0 Z " fill="#444444" transform="translate(82,0)"/>
<path d="M0 0 C6.27 0 12.54 0 19 0 C19 1.66666667 19 3.33333333 19 5 C12.73 3.68 6.46 2.36 0 1 C0 0.67 0 0.34 0 0 Z " fill="#EFEFEF" transform="translate(101,0)"/>
<path d="M0 0 C2.475 0.495 2.475 0.495 5 1 C5 1.66 5 2.32 5 3 C5.66 3 6.32 3 7 3 C7.33 2.34 7.66 1.68 8 1 C8.66 1.33 9.32 1.66 10 2 C10.33 1.34 10.66 0.68 11 0 C11.33 2.31 11.66 4.62 12 7 C11.01 7.33 10.02 7.66 9 8 C9 7.34 9 6.68 9 6 C8.34 6 7.68 6 7 6 C6.67 6.66 6.34 7.32 6 8 C4.99403703 7.0479279 3.99538437 6.08812654 3 5.125 C2.443125 4.59132813 1.88625 4.05765625 1.3125 3.5078125 C0 2 0 2 0 0 Z " fill="#373737" transform="translate(146,30)"/>
<path d="M0 0 C-2.42809838 2.93927699 -4.24223946 3.57298176 -8 4 C-14.496 4.336 -14.496 4.336 -18 2 C-15.75256955 1.46818825 -13.50192898 0.94992874 -11.25 0.4375 C-9.99703125 0.14746094 -8.7440625 -0.14257812 -7.453125 -0.44140625 C-4.40526252 -0.93444283 -2.82358172 -1.07666879 0 0 Z " fill="#3F3F3F" transform="translate(114,169)"/>
<path d="M0 0 C2 2 2 2 2 5 C2.66 5 3.32 5 4 5 C4.33 3.68 4.66 2.36 5 1 C5.66 2.32 6.32 3.64 7 5 C5.02 5.33 3.04 5.66 1 6 C1 5.34 1 4.68 1 4 C0.34 4 -0.32 4 -1 4 C-1 4.66 -1 5.32 -1 6 C-2.65 6.33 -4.3 6.66 -6 7 C-6 6.34 -6 5.68 -6 5 C-6.66 4.67 -7.32 4.34 -8 4 C-5.36 2.68 -2.72 1.36 0 0 Z " fill="#454545" transform="translate(130,160)"/>
<path d="M0 0 C0.66 0.33 1.32 0.66 2 1 C-1.3 3.31 -4.6 5.62 -8 8 C-8.66 7.67 -9.32 7.34 -10 7 C-9.67 6.34 -9.34 5.68 -9 5 C-9.66 4.67 -10.32 4.34 -11 4 C-11.33 3.01 -11.66 2.02 -12 1 C-11.07767578 1.14308594 -11.07767578 1.14308594 -10.13671875 1.2890625 C-9.32847656 1.39992188 -8.52023438 1.51078125 -7.6875 1.625 C-6.88699219 1.74101563 -6.08648437 1.85703125 -5.26171875 1.9765625 C-2.71276785 2.21533407 -2.71276785 2.21533407 0 0 Z " fill="#323232" transform="translate(101,73)"/>
<path d="M0 0 C1.37432457 3.81756824 0.67975039 7.07255329 0 11 C-0.66 11 -1.32 11 -2 11 C-2 11.66 -2 12.32 -2 13 C-4 14.625 -4 14.625 -6 16 C-6.33 14.35 -6.66 12.7 -7 11 C-5.68 11.33 -4.36 11.66 -3 12 C-2.34 10.02 -1.68 8.04 -1 6 C-1.99 6.33 -2.98 6.66 -4 7 C-4 4 -4 4 -2 1.8125 C-1.34 1.214375 -0.68 0.61625 0 0 Z " fill="#404040" transform="translate(150,144)"/>
<path d="M0 0 C0.66 0.66 1.32 1.32 2 2 C3.32 2 4.64 2 6 2 C6.99 2.66 7.98 3.32 9 4 C8.67 4.99 8.34 5.98 8 7 C7.67 6.34 7.34 5.68 7 5 C3.88667752 5.66868314 3.88667752 5.66868314 2.8125 8.0625 C2.544375 8.701875 2.27625 9.34125 2 10 C0.9375 8.125 0.9375 8.125 0 6 C0.33 5.34 0.66 4.68 1 4 C0.34 3.67 -0.32 3.34 -1 3 C-0.67 2.01 -0.34 1.02 0 0 Z " fill="#343434" transform="translate(20,139)"/>
<path d="M0 0 C1.32 0.33 2.64 0.66 4 1 C4 1.66 4 2.32 4 3 C2.3603279 4.36639342 0.68889872 5.6949419 -1 7 C-2.35147138 8.31494512 -3.69112542 9.64264858 -5 11 C-5.66 10.67 -6.32 10.34 -7 10 C-3.535 5.05 -3.535 5.05 0 0 Z " fill="#EFEFEF" transform="translate(26,40)"/>
<path d="M0 0 C0.99 0.33 1.98 0.66 3 1 C2.67 1.99 2.34 2.98 2 4 C2.66 4 3.32 4 4 4 C4.66 5.65 5.32 7.3 6 9 C4.02 9.99 4.02 9.99 2 11 C1.566875 9.576875 1.566875 9.576875 1.125 8.125 C0.23174891 4.94788422 0.23174891 4.94788422 -2 3 C-1.34 2.01 -0.68 1.02 0 0 Z " fill="#3D3D3D" transform="translate(153,140)"/>
<path d="M0 0 C0.33 0.99 0.66 1.98 1 3 C-0.32 3.33 -1.64 3.66 -3 4 C-3 4.66 -3 5.32 -3 6 C-5.3125 6.6875 -5.3125 6.6875 -8 7 C-9.66796875 5.51953125 -9.66796875 5.51953125 -11 4 C-9.5437455 3.32880451 -8.08492133 2.66318193 -6.625 2 C-5.81289063 1.62875 -5.00078125 1.2575 -4.1640625 0.875 C-2 0 -2 0 0 0 Z " fill="#424242" transform="translate(50,81)"/>
<path d="M0 0 C-0.33 1.65 -0.66 3.3 -1 5 C-7.75 4.125 -7.75 4.125 -10 3 C-10 2.34 -10 1.68 -10 1 C-6.1496895 -1.56687367 -4.41430237 -0.83288724 0 0 Z " fill="#353535" transform="translate(64,170)"/>
<path d="M0 0 C1.32 0.99 2.64 1.98 4 3 C3.34 6.3 2.68 9.6 2 13 C1.67 13 1.34 13 1 13 C0.01 9.04 -0.98 5.08 -2 1 C-1.34 0.67 -0.68 0.34 0 0 Z " fill="#464646" transform="translate(168,61)"/>
<path d="M0 0 C0.66 0.33 1.32 0.66 2 1 C1.53411505 6.70709064 0.06242216 10.15939723 -3 15 C-4.53445094 11.93109813 -3.54984289 9.29905734 -3 6 C-2.34 6.33 -1.68 6.66 -1 7 C-1.020625 6.030625 -1.04125 5.06125 -1.0625 4.0625 C-1 1 -1 1 0 0 Z " fill="#2E2E2E" transform="translate(18,44)"/>
<path d="M0 0 C1.98 0 3.96 0 6 0 C2 4 -2 8 -6 12 C-6.66 11.34 -7.32 10.68 -8 10 C-7.236875 9.46375 -6.47375 8.9275 -5.6875 8.375 C-2.77135526 5.79794186 -1.5294378 3.54185596 0 0 Z " fill="#262626" transform="translate(35,25)"/>
<path d="M0 0 C0.99 0.33 1.98 0.66 3 1 C2.67 2.65 2.34 4.3 2 6 C-0.38564077 5.42415568 -2.66682784 4.77772405 -5 4 C-5.33 4.66 -5.66 5.32 -6 6 C-6 4.68 -6 3.36 -6 2 C-2.25 0.875 -2.25 0.875 0 2 C0 1.34 0 0.68 0 0 Z " fill="#353535" transform="translate(43,157)"/>
<path d="M0 0 C0.66 0.33 1.32 0.66 2 1 C-0.77611933 4.59867321 -3.61248087 7.95991873 -7 11 C-7.99 11 -8.98 11 -10 11 C-6.79239749 7.19364503 -3.59253891 3.45436433 0 0 Z " fill="#E5E5E5" transform="translate(38,27)"/>
<path d="M0 0 C0.99 0.33 1.98 0.66 3 1 C2.42655063 3.86724686 2.1385485 4.8614515 0 7 C-0.99 6.67 -1.98 6.34 -3 6 C-3.33 5.01 -3.66 4.02 -4 3 C-2.1875 1.4375 -2.1875 1.4375 0 0 Z " fill="#E6E6E6" transform="translate(106,71)"/>
<path d="M0 0 C1.65 1.65 3.3 3.3 5 5 C4.67 5.66 4.34 6.32 4 7 C1.4375 7.625 1.4375 7.625 -1 8 C-1 7.34 -1 6.68 -1 6 C-1.99 6.33 -2.98 6.66 -4 7 C-4 6.34 -4 5.68 -4 5 C-2.68 4.34 -1.36 3.68 0 3 C0 2.01 0 1.02 0 0 Z " fill="#434343" transform="translate(152,25)"/>
<path d="M0 0 C2.475 0.99 2.475 0.99 5 2 C5.33 1.34 5.66 0.68 6 0 C7.125 3.75 7.125 3.75 6 6 C3.69 5.67 1.38 5.34 -1 5 C-0.67 3.35 -0.34 1.7 0 0 Z " fill="#353535" transform="translate(130,49)"/>
<path d="M0 0 C0.33 0.99 0.66 1.98 1 3 C1.99 3 2.98 3 4 3 C3.67 4.32 3.34 5.64 3 7 C1.35 6.67 -0.3 6.34 -2 6 C-2.33 4.35 -2.66 2.7 -3 1 C-2.01 0.67 -1.02 0.34 0 0 Z " fill="#393939" transform="translate(158,38)"/>
<path d="M0 0 C3.79450934 0.39253545 5.51015791 2.24338912 8 5 C7.67 5.66 7.34 6.32 7 7 C5.35 7 3.7 7 2 7 C2 5.68 2 4.36 2 3 C1.01 2.34 0.02 1.68 -1 1 C-0.67 0.67 -0.34 0.34 0 0 Z " fill="#424242" transform="translate(36,152)"/>
<path d="M0 0 C1.23556641 0.01740234 1.23556641 0.01740234 2.49609375 0.03515625 C3.32238281 0.04417969 4.14867187 0.05320313 5 0.0625 C5.63808594 0.07410156 6.27617187 0.08570313 6.93359375 0.09765625 C7.26359375 1.41765625 7.59359375 2.73765625 7.93359375 4.09765625 C5.95359375 3.43765625 3.97359375 2.77765625 1.93359375 2.09765625 C1.27359375 2.75765625 0.61359375 3.41765625 -0.06640625 4.09765625 C-1.05640625 3.10765625 -2.04640625 2.11765625 -3.06640625 1.09765625 C-2.06640625 0.09765625 -2.06640625 0.09765625 0 0 Z " fill="#3D3D3D" transform="translate(128.06640625,47.90234375)"/>
<path d="M0 0 C-1.0975223 2.99324263 -1.67682892 3.84610901 -4.625 5.25 C-5.40875 5.4975 -6.1925 5.745 -7 6 C-7.66 5.01 -8.32 4.02 -9 3 C-3.375 0 -3.375 0 0 0 Z " fill="#464646" transform="translate(59,6)"/>
<path d="M0 0 C0.99 0.33 1.98 0.66 3 1 C3 1.66 3 2.32 3 3 C2.01 3.495 2.01 3.495 1 4 C0.34444881 6.52733235 0.34444881 6.52733235 0 9 C-0.66 8.67 -1.32 8.34 -2 8 C-2 5.69 -2 3.38 -2 1 C-1.34 0.67 -0.68 0.34 0 0 Z " fill="#424242" transform="translate(25,143)"/>
<path d="M0 0 C-1.42859407 1.03325986 -2.86822383 2.05127634 -4.3125 3.0625 C-5.51326172 3.91521484 -5.51326172 3.91521484 -6.73828125 4.78515625 C-7.48464844 5.18605469 -8.23101562 5.58695312 -9 6 C-9.99 5.67 -10.98 5.34 -12 5 C-11.195625 4.54625 -10.39125 4.0925 -9.5625 3.625 C-6.91143428 2.25274335 -6.91143428 2.25274335 -6 0 C-3 -1 -3 -1 0 0 Z " fill="#2C2C2C" transform="translate(74,94)"/>
<path d="M0 0 C1.39195915 4.17587745 -0.17676781 6.13474776 -2 10 C-2.99 9.67 -3.98 9.34 -5 9 C-5 8.34 -5 7.68 -5 7 C-4.34 7 -3.68 7 -3 7 C-2.690625 6.21625 -2.38125 5.4325 -2.0625 4.625 C-1 2 -1 2 0 0 Z " fill="#343434" transform="translate(14,121)"/>
<path d="M0 0 C-1.09283577 1.03295436 -2.19970579 2.05107835 -3.3125 3.0625 C-3.92738281 3.63097656 -4.54226562 4.19945312 -5.17578125 4.78515625 C-5.77777344 5.18605469 -6.37976563 5.58695313 -7 6 C-7.99 5.67 -8.98 5.34 -10 5 C-9.34 5 -8.68 5 -8 5 C-7.938125 4.38125 -7.87625 3.7625 -7.8125 3.125 C-7 1 -7 1 -4.5625 -0.3125 C-2 -1 -2 -1 0 0 Z " fill="#292929" transform="translate(148,159)"/>
<path d="M0 0 C0.66 0.33 1.32 0.66 2 1 C2 3.97 2 6.94 2 10 C1.01 10.33 0.02 10.66 -1 11 C-2.41687119 6.74938644 -1.19320039 4.28148375 0 0 Z " fill="#464646" transform="translate(169,106)"/>
<path d="M0 0 C1.65 1.32 3.3 2.64 5 4 C3.35 4.66 1.7 5.32 0 6 C-1.32 4.35 -2.64 2.7 -4 1 C-2.68 1.33 -1.36 1.66 0 2 C0 1.34 0 0.68 0 0 Z " fill="#454545" transform="translate(29,151)"/>
<path d="M0 0 C0.99 0.33 1.98 0.66 3 1 C2.67 2.65 2.34 4.3 2 6 C1.01 6.33 0.02 6.66 -1 7 C-1.625 4.625 -1.625 4.625 -2 2 C-1.34 1.34 -0.68 0.68 0 0 Z " fill="#464646" transform="translate(33,88)"/>
<path d="M0 0 C0.99 0 1.98 0 3 0 C3 0.66 3 1.32 3 2 C3.99 2.33 4.98 2.66 6 3 C5.01 3.495 5.01 3.495 4 4 C4.33 4.99 4.66 5.98 5 7 C4.01 7.495 4.01 7.495 3 8 C2.34 7.67 1.68 7.34 1 7 C1.33 5.68 1.66 4.36 2 3 C1.01 2.67 0.02 2.34 -1 2 C-0.67 1.34 -0.34 0.68 0 0 Z " fill="#424242" transform="translate(20,33)"/>
<path d="M0 0 C0.625 1.8125 0.625 1.8125 1 4 C0.01 5.485 0.01 5.485 -1 7 C-1.66 7 -2.32 7 -3 7 C-3 6.34 -3 5.68 -3 5 C-3.66 4.67 -4.32 4.34 -5 4 C-3.35 2.68 -1.7 1.36 0 0 Z " fill="#363636" transform="translate(26,28)"/>
<path d="M0 0 C0.66 0.33 1.32 0.66 2 1 C0.74057614 2.19959375 -0.53295286 3.38439443 -1.8125 4.5625 C-2.87404297 5.55443359 -2.87404297 5.55443359 -3.95703125 6.56640625 C-4.63121094 7.03949219 -5.30539063 7.51257813 -6 8 C-6.99 7.67 -7.98 7.34 -9 7 C-6.03 4.69 -3.06 2.38 0 0 Z " fill="#DBDBDB" transform="translate(148,158)"/>
<path d="M0 0 C0.33 0 0.66 0 1 0 C0.88637738 1.4800841 0.75877092 2.95910074 0.625 4.4375 C0.55539063 5.26121094 0.48578125 6.08492187 0.4140625 6.93359375 C0.27742188 7.61550781 0.14078125 8.29742187 0 9 C-0.99 9.495 -0.99 9.495 -2 10 C-2.66 8.02 -3.32 6.04 -4 4 C-2.68 4 -1.36 4 0 4 C0 2.68 0 1.36 0 0 Z " fill="#313131" transform="translate(126,124)"/>
<path d="M0 0 C0.33 0 0.66 0 1 0 C1.28571429 8.57142857 1.28571429 8.57142857 -1 12 C-2.11658501 7.31034294 -1.80619523 4.46236469 0 0 Z " fill="#252525" transform="translate(131,90)"/>
<path d="M0 0 C2.97526665 2.55022856 4.50122302 5.40293526 6 9 C5.67 9.99 5.34 10.98 5 12 C4.15885829 10.56705502 3.32734313 9.12845595 2.5 7.6875 C1.80390625 6.48673828 1.80390625 6.48673828 1.09375 5.26171875 C0 3 0 3 0 0 Z " fill="#2E2E2E" transform="translate(167,45)"/>
<path d="M0 0 C0.66 0 1.32 0 2 0 C2.33 1.32 2.66 2.64 3 4 C0.36 4.66 -2.28 5.32 -5 6 C-3.38405168 3.95880212 -1.7143618 1.95927063 0 0 Z " fill="#4E4E4E" transform="translate(28,24)"/>
<path d="M0 0 C0.66 0.33 1.32 0.66 2 1 C-1.625 7.75 -1.625 7.75 -5 10 C-5.33 9.01 -5.66 8.02 -6 7 C-5.195625 6.401875 -4.39125 5.80375 -3.5625 5.1875 C-0.77672016 3.19052724 -0.77672016 3.19052724 0 0 Z " fill="#F3F3F3" transform="translate(25,23)"/>
<path d="M0 0 C-1.43011973 0.86646667 -2.86940619 1.71781829 -4.3125 2.5625 C-5.51326172 3.27599609 -5.51326172 3.27599609 -6.73828125 4.00390625 C-9 5 -9 5 -12 4 C-3.13924051 -1.56962025 -3.13924051 -1.56962025 0 0 Z " fill="#262626" transform="translate(135,168)"/>
<path d="M0 0 C0.99 0.66 1.98 1.32 3 2 C2.67 2.99 2.34 3.98 2 5 C1.01 5.33 0.02 5.66 -1 6 C-1.625 4.125 -1.625 4.125 -2 2 C-1.34 1.34 -0.68 0.68 0 0 Z " fill="#F0F0F0" transform="translate(164,32)"/>
<path d="M0 0 C-1.485 1.485 -1.485 1.485 -3 3 C-5.475 2.01 -5.475 2.01 -8 1 C-4.93251126 -0.86240388 -3.40254489 -1.2151946 0 0 Z " fill="#484848" transform="translate(114,169)"/>
<path d="M0 0 C1.32 0.66 2.64 1.32 4 2 C2.515 4.475 2.515 4.475 1 7 C0.34 6.67 -0.32 6.34 -1 6 C-1.042721 4.33388095 -1.04063832 2.66617115 -1 1 C-0.67 0.67 -0.34 0.34 0 0 Z " fill="#F1F1F1" transform="translate(34,161)"/>
<path d="M0 0 C0.66 0.33 1.32 0.66 2 1 C1.67 2.65 1.34 4.3 1 6 C-0.98 4.68 -2.96 3.36 -5 2 C-4.360625 1.855625 -3.72125 1.71125 -3.0625 1.5625 C-1.02454854 1.18992819 -1.02454854 1.18992819 0 0 Z " fill="#484848" transform="translate(35,156)"/>
<path d="M0 0 C1.125 3.75 1.125 3.75 0 6 C-2.0625 6.625 -2.0625 6.625 -4 7 C-4 4 -4 4 -2 1.8125 C-1.34 1.214375 -0.68 0.61625 0 0 Z " fill="#474747" transform="translate(150,144)"/>
<path d="M0 0 C0.99 0.33 1.98 0.66 3 1 C2.01 1.66 1.02 2.32 0 3 C0 2.01 0 1.02 0 0 Z M-1 2 C-1 2.66 -1 3.32 -1 4 C-1.66 4 -2.32 4 -3 4 C-3.33 4.66 -3.66 5.32 -4 6 C-4.99 5.67 -5.98 5.34 -7 5 C-3.25 2 -3.25 2 -1 2 Z " fill="#EBEBEB" transform="translate(93,80)"/>
<path d="M0 0 C0.99 0.33 1.98 0.66 3 1 C3 1.66 3 2.32 3 3 C2.34 3 1.68 3 1 3 C0.71125 3.804375 0.4225 4.60875 0.125 5.4375 C-1 8 -1 8 -3 9 C-2.01 6.03 -1.02 3.06 0 0 Z " fill="#4D4D4D" transform="translate(8,52)"/>
<path d="M0 0 C1.65 0 3.3 0 5 0 C4.67 0.99 4.34 1.98 4 3 C3.01 3.33 2.02 3.66 1 4 C0.34 3.67 -0.32 3.34 -1 3 C-0.67 2.01 -0.34 1.02 0 0 Z " fill="#EDEDED" transform="translate(130,156)"/>
<path d="M0 0 C0.66 0.33 1.32 0.66 2 1 C1.34 2.32 0.68 3.64 0 5 C-0.99 4.67 -1.98 4.34 -3 4 C-2.67 3.01 -2.34 2.02 -2 1 C-1.34 0.67 -0.68 0.34 0 0 Z M-2 5 C-1.67 5.66 -1.34 6.32 -1 7 C-1.66 6.67 -2.32 6.34 -3 6 C-2.67 5.67 -2.34 5.34 -2 5 Z " fill="#353535" transform="translate(148,149)"/>
<path d="M0 0 C0.99 0.33 1.98 0.66 3 1 C2.67 2.32 2.34 3.64 2 5 C1.01 5 0.02 5 -1 5 C-0.67 4.34 -0.34 3.68 0 3 C-0.66 3 -1.32 3 -2 3 C-2 2.34 -2 1.68 -2 1 C-1.34 0.67 -0.68 0.34 0 0 Z " fill="#434343" transform="translate(53,79)"/>
<path d="M0 0 C0.66 0.33 1.32 0.66 2 1 C1.67 3.31 1.34 5.62 1 8 C-0.89213369 5.61426621 -2.02391783 3.92824652 -3 1 C-2.01 0.67 -1.02 0.34 0 0 Z " fill="#484848" transform="translate(165,52)"/>
<path d="M0 0 C1.98 0 3.96 0 6 0 C6 1.32 6 2.64 6 4 C5.01 4.33 4.02 4.66 3 5 C2.01 3.35 1.02 1.7 0 0 Z " fill="#414141" transform="translate(133,19)"/>
<path d="M0 0 C0 0.66 0 1.32 0 2 C-0.66 2.66 -1.32 3.32 -2 4 C-4.625 3.625 -4.625 3.625 -7 3 C-7 2.34 -7 1.68 -7 1 C-4.50935112 0.31292445 -2.62113708 0 0 0 Z " fill="#343434" transform="translate(127,12)"/>
</svg>
