<?xml version="1.0" encoding="UTF-8"?>
<svg version="1.1" xmlns="http://www.w3.org/2000/svg" width="872" height="382">
<path d="M0 0 C287.76 0 575.52 0 872 0 C872 126.06 872 252.12 872 382 C584.24 382 296.48 382 0 382 C0 255.94 0 129.88 0 0 Z " fill="#0A0A0A" transform="translate(0,0)"/>
<path d="M0 0 C2.52050609 0.07453852 5.04142312 0.13574769 7.5625 0.1875 C18.18286976 0.64460598 27.97524712 3.63631262 38 7 C38.71494629 7.23879883 39.42989258 7.47759766 40.16650391 7.72363281 C54.73969902 12.73128722 66.37139267 21.06885717 78 31 C79.08261631 31.85507527 80.16581355 32.70941645 81.25 33.5625 C99.99345681 50.17601853 112.93854168 74.71670287 118 99 C118.16918945 99.76086914 118.33837891 100.52173828 118.51269531 101.30566406 C120.10471028 109.04929319 120.38656651 116.6086233 120.375 124.5 C120.37412384 125.15818726 120.37324768 125.81637451 120.37234497 126.49450684 C120.21710794 161.98308958 104.59251895 192.84677151 79.70703125 217.59375 C78 219 78 219 76 219 C76 219.66 76 220.32 76 221 C73.70400115 222.81359484 71.41562173 224.48312126 69 226.125 C68.28030029 226.61564941 67.56060059 227.10629883 66.8190918 227.61181641 C52.30499769 237.29419305 36.10330025 244.43509525 19 248 C18.22245361 248.16918945 17.44490723 248.33837891 16.64379883 248.51269531 C-0.2096625 251.92705968 -18.49104536 251.42169796 -35.00292969 246.58105469 C-36.96403701 246.01046356 -38.93330224 245.50523651 -40.9140625 245.0078125 C-69.95840351 237.29830998 -96.27024456 216.74032744 -111.44921875 190.8984375 C-116.06289636 182.84900355 -120.46998828 174.83592667 -123.5625 166.0625 C-123.97628906 164.89847656 -124.39007813 163.73445312 -124.81640625 162.53515625 C-131.89337463 141.39767645 -132.48350754 116.58167627 -127 95 C-126.82839355 94.30712891 -126.65678711 93.61425781 -126.47998047 92.90039062 C-121.85861568 74.58012773 -113.19275831 58.86517989 -101.015625 44.41015625 C-98.99915748 42.06441802 -98.99915748 42.06441802 -97.359375 39.68359375 C-96.68648437 38.85021484 -96.68648437 38.85021484 -96 38 C-95.34 38 -94.68 38 -94 38 C-94 37.34 -94 36.68 -94 36 C-93.34 36 -92.68 36 -92 36 C-92 35.34 -92 34.68 -92 34 C-88.55791106 30.73725838 -84.75915052 27.88683628 -81 25 C-80.02417969 24.24847656 -79.04835937 23.49695313 -78.04296875 22.72265625 C-59.80826776 9.40359994 -38.92016466 1.8723767 -16.5625 -0.25 C-15.61487793 -0.34224854 -14.66725586 -0.43449707 -13.69091797 -0.52954102 C-8.88058813 -0.94257502 -4.76210746 -0.94580745 0 0 Z " fill="#02110D" transform="translate(192,66)"/>
<path d="M0 0 C0 0.66 0 1.32 0 2 C-15.95535708 8.03947745 -32.73613746 13.69503009 -49.79296875 15.3828125 C-52.81328114 16.22743083 -54.0807217 17.54949288 -56 20 C-56.72189591 22.26945621 -56.72189591 22.26945621 -56.8125 24.625 C-56.88082031 25.40101562 -56.94914062 26.17703125 -57.01953125 26.9765625 C-57.14722804 29.07101033 -57.14722804 29.07101033 -56 31 C-55.39639648 31.01458252 -54.79279297 31.02916504 -54.17089844 31.04418945 C-19.27623508 31.98540083 -19.27623508 31.98540083 -6.0625 44.3125 C0.1387343 51.13537392 3.37206746 58.45861067 3.20703125 67.640625 C2.52157143 75.45228025 -1.8118804 81.34327605 -7 87 C-8.30613771 88.03526908 -9.63249885 89.04725744 -11 90 C-10.29875 90.32871094 -9.5975 90.65742188 -8.875 90.99609375 C-0.34976272 95.27029559 6.66919761 100.39864057 9.9375 109.6875 C10.32203361 111.11717625 10.68000583 112.55450908 11 114 C11.226875 114.969375 11.45375 115.93875 11.6875 116.9375 C12.82462297 128.08130512 11.55628585 138.5552688 4.875 147.9375 C-2.55625484 156.58881161 -16.66494408 163.28268514 -28.05883789 164.15820312 C-30.18973375 164.19541974 -32.30678206 164.17528112 -34.4375 164.125 C-36.933125 164.08375 -39.42875 164.0425 -42 164 C-42 173.24 -42 182.48 -42 192 C-47.94 192 -53.88 192 -60 192 C-60 182.76 -60 173.52 -60 164 C-63.96 164 -67.92 164 -72 164 C-72 173.24 -72 182.48 -72 192 C-78.27 192 -84.54 192 -91 192 C-91 182.76 -91 173.52 -91 164 C-102.55 164 -114.1 164 -126 164 C-126 157.07 -126 150.14 -126 143 C-117.125 142.625 -117.125 142.625 -114.33251953 142.52197266 C-113.24366455 142.46855713 -113.24366455 142.46855713 -112.1328125 142.4140625 C-111.38918457 142.3826416 -110.64555664 142.3512207 -109.87939453 142.31884766 C-107.75989026 142.14580449 -107.75989026 142.14580449 -106 140 C-105.81189781 137.22873271 -105.74823316 134.55819478 -105.77294922 131.78662109 C-105.77265717 130.9377684 -105.77236511 130.08891571 -105.77206421 129.21434021 C-105.77346072 126.40060301 -105.78903697 123.58712861 -105.8046875 120.7734375 C-105.80841649 118.82573593 -105.811264 116.87803248 -105.81326294 114.93032837 C-105.82090839 109.79775842 -105.84056468 104.66530121 -105.8626709 99.53277588 C-105.88310972 94.29790777 -105.89226045 89.06302149 -105.90234375 83.828125 C-105.92380975 73.55202576 -105.95899929 63.27603988 -106 53 C-112.93 53 -119.86 53 -127 53 C-127 46.07 -127 39.14 -127 32 C-124.24390381 31.970271 -124.24390381 31.970271 -121.43212891 31.93994141 C-115.36909537 31.87223761 -109.30623001 31.79546776 -103.24338722 31.71247292 C-99.56659359 31.66247448 -95.88982918 31.61614507 -92.21289062 31.578125 C-88.66606297 31.54131654 -85.11947779 31.49496933 -81.5728569 31.44193649 C-80.2180849 31.42336878 -78.86326087 31.40826962 -77.50841141 31.39665604 C-75.61439144 31.37983491 -73.72050412 31.34966384 -71.82666016 31.31884766 C-70.20783432 31.29886215 -70.20783432 31.29886215 -68.55630493 31.2784729 C-65.8344136 31.25199493 -65.8344136 31.25199493 -64 29 C-63.47305941 27.24835684 -63.02680976 25.47200807 -62.625 23.6875 C-57.17497148 1.1010634 -57.17497148 1.1010634 -48.125 -6.375 C-31.83104991 -14.84785405 -14.293314 -9.528876 0 0 Z " fill="#1BB47D" transform="translate(245,98)"/>
<path d="M0 0 C0.83587646 -0.00095673 1.67175293 -0.00191345 2.53295898 -0.00289917 C4.30159582 -0.00358018 6.07023515 -0.00173141 7.83886719 0.00244141 C10.55148921 0.00779079 13.26394565 0.00249375 15.9765625 -0.00390625 C17.6927087 -0.00324545 19.4088548 -0.00196426 21.125 0 C22.3469104 -0.00303635 22.3469104 -0.00303635 23.59350586 -0.00613403 C29.33258072 0.01785286 29.33258072 0.01785286 31.5625 1.1328125 C33.99177295 1.40807184 36.42103173 1.57813611 38.859375 1.75390625 C41.94796165 2.18684397 44.61988413 3.10179622 47.5625 4.1328125 C48.72523438 4.46539062 49.88796875 4.79796875 51.0859375 5.140625 C86.52016728 15.28573314 116.69630837 40.34620597 134.91796875 72.17578125 C152.27488215 103.47673183 158.29549654 141.00023477 149.11328125 175.89453125 C144.14765635 193.17362858 137.51751006 209.73901004 126.5625 224.1328125 C126.00820313 224.86757813 125.45390625 225.60234375 124.8828125 226.359375 C123.13508682 228.63866702 121.35357739 230.88744937 119.5625 233.1328125 C118.84964844 234.04417969 118.13679687 234.95554687 117.40234375 235.89453125 C112.8547116 241.61222313 108.28064245 246.59366849 102.5625 251.1328125 C101.60601562 251.91398438 100.64953125 252.69515625 99.6640625 253.5 C86.47879512 264.09537675 71.95794886 271.67080708 56 277.2578125 C55.33516602 277.49967285 54.67033203 277.7415332 53.98535156 277.99072266 C40.1970133 282.63672393 25.80178568 283.63461033 11.3659668 283.52392578 C8.86517421 283.50774894 6.36598071 283.52394054 3.86523438 283.54296875 C-9.80704044 283.56237778 -22.45180318 281.63427205 -35.375 276.9453125 C-36.21345459 276.64560547 -37.05190918 276.34589844 -37.91577148 276.03710938 C-67.43610741 265.18342764 -90.69032458 245.90341154 -108.4375 220.1328125 C-108.83195312 219.56175781 -109.22640625 218.99070312 -109.6328125 218.40234375 C-114.83776336 210.7405105 -118.53105637 202.85837308 -121.68457031 194.19311523 C-122.24331385 192.66417986 -122.81810851 191.14109019 -123.40136719 189.62133789 C-135.69652662 157.07856552 -135.22860811 119.35932747 -121.38671875 87.34765625 C-116.15894166 75.84332791 -110.32990497 65.05083472 -102.4375 55.1328125 C-101.63570312 54.10542969 -100.83390625 53.07804687 -100.0078125 52.01953125 C-95.4605464 46.30276061 -95.4605464 46.30276061 -93.4375 44.1328125 C-92.7775 44.1328125 -92.1175 44.1328125 -91.4375 44.1328125 C-91.19515625 43.55789062 -90.9528125 42.98296875 -90.703125 42.390625 C-84.03921488 30.50253843 -66.2624693 21.1138477 -54.4375 15.1328125 C-53.50679688 14.63136719 -52.57609375 14.12992188 -51.6171875 13.61328125 C-43.79863928 9.49551252 -35.87146814 6.69926807 -27.4375 4.1328125 C-26.24382812 3.76800781 -25.05015625 3.40320312 -23.8203125 3.02734375 C-20.85247748 2.24254673 -18.17543042 1.79328331 -15.125 1.5703125 C-9.90631439 1.17871128 -5.35631482 -0.01331 0 0 Z M-46.4375 30.1328125 C-47.31019531 30.55433594 -48.18289062 30.97585937 -49.08203125 31.41015625 C-58.81322976 36.48337848 -68.50217564 43.57536073 -76.4375 51.1328125 C-76.4375 51.7928125 -76.4375 52.4528125 -76.4375 53.1328125 C-77.0975 53.1328125 -77.7575 53.1328125 -78.4375 53.1328125 C-78.4375 53.7928125 -78.4375 54.4528125 -78.4375 55.1328125 C-79.4275 55.4628125 -80.4175 55.7928125 -81.4375 56.1328125 C-83.31868635 58.30520417 -85.07745848 60.47412272 -86.8125 62.7578125 C-87.28171875 63.36238281 -87.7509375 63.96695313 -88.234375 64.58984375 C-111.21154367 94.35860647 -117.6868942 128.47167719 -113.0703125 165.3203125 C-112.44989456 169.05813913 -111.56048718 172.51655055 -110.4375 176.1328125 C-110.06753906 177.36515625 -109.69757813 178.5975 -109.31640625 179.8671875 C-104.51309963 194.84977342 -96.89534418 209.29153153 -86.4375 221.1328125 C-85.71820313 221.95910156 -84.99890625 222.78539062 -84.2578125 223.63671875 C-82.01722705 226.16775046 -79.73691353 228.65524621 -77.4375 231.1328125 C-76.89738281 231.73867188 -76.35726562 232.34453125 -75.80078125 232.96875 C-62.35190157 247.40004155 -42.37727091 257.76658794 -23.43554688 262.61376953 C-21.40706908 263.1407177 -19.40174329 263.7270235 -17.390625 264.31640625 C13.46070196 272.79810447 46.20610925 265.55378952 73.5625 250.1328125 C77.31375802 247.91324174 80.96045066 245.58603547 84.5625 243.1328125 C85.29726563 242.64554688 86.03203125 242.15828125 86.7890625 241.65625 C88.42347397 240.54276649 90.00142824 239.34697943 91.5625 238.1328125 C91.5625 237.4728125 91.5625 236.8128125 91.5625 236.1328125 C92.12839844 235.88917969 92.69429687 235.64554688 93.27734375 235.39453125 C112.50193849 224.77992595 125.47066686 196.30842698 131.37890625 176.3515625 C131.77478031 174.94568993 132.16940537 173.53946476 132.5625 172.1328125 C133.07103516 170.44671875 133.07103516 170.44671875 133.58984375 168.7265625 C141.41921372 137.84204315 134.03077676 104.12527174 118.125 77.1328125 C114.16326328 70.66383181 109.53571937 64.85724474 104.5625 59.1328125 C104.06363281 58.50117187 103.56476563 57.86953125 103.05078125 57.21875 C98.63445513 51.67619745 93.12208378 47.47823431 87.5625 43.1328125 C86.55703125 42.3284375 86.55703125 42.3284375 85.53125 41.5078125 C66.47334886 26.64910992 43.39366072 17.85835148 19.19921875 17.2734375 C15.5625 17.1328125 15.5625 17.1328125 12.73046875 16.57421875 C-7.4953969 13.75606484 -28.61022732 21.43986823 -46.4375 30.1328125 Z " fill="#184936" transform="translate(176.4375,48.8671875)"/>
<path d="M0 0 C64.24029898 0 64.24029898 0 73.5 9.09765625 C79.4925408 16.69757127 81.92823212 24.0064496 81.44921875 33.671875 C80.28551728 42.29338504 76.63825052 49.28967697 70 55 C66.5625 56.5 66.5625 56.5 64 57 C64 57.66 64 58.32 64 59 C64.66 59.04125 65.32 59.0825 66 59.125 C72.95564119 61.15372868 77.47956997 65.97568083 81.08984375 72.0703125 C84.40400217 79.09689731 84.00923077 87.96779297 82.1640625 95.33984375 C78.82293674 104.23082606 73.8565692 109.36596919 65.3125 113.375 C45.94734156 121.51757119 13.6860872 116 0 116 C0 77.72 0 39.44 0 0 Z " fill="#FBFBFB" transform="translate(361,210)"/>
<path d="M0 0 C6.66589941 5.15367178 10.85152414 10.3616872 14.65234375 17.8515625 C15.1784021 18.88579346 15.1784021 18.88579346 15.71508789 19.94091797 C17.49043287 23.63660712 18.60028374 26.5446144 18.15234375 30.6640625 C5.6169406 32.09668 5.6169406 32.09668 0.15234375 30.6640625 C-2.69314056 27.87176481 -3.89951541 25.34769982 -5.49609375 21.71484375 C-8.77741861 14.30815383 -16.56432277 10.48959064 -23.84765625 7.6640625 C-35.73603348 5.03316297 -50.18096403 5.32383388 -60.97265625 11.2265625 C-71.40267288 17.98888097 -77.3945708 27.7164337 -80.66015625 39.5390625 C-84.01676886 55.8784354 -82.9870442 73.31738665 -74.11328125 87.77734375 C-68.74650353 95.77781795 -61.86895458 100.40229014 -52.84765625 103.6640625 C-40.15080161 106.01533188 -26.85586401 106.00893244 -15.50390625 99.2734375 C-7.21767113 93.39886783 -2.82978574 86.33304388 0.15234375 76.6640625 C0.48234375 73.6940625 0.81234375 70.7240625 1.15234375 67.6640625 C-13.03765625 67.6640625 -27.22765625 67.6640625 -41.84765625 67.6640625 C-41.84765625 62.3840625 -41.84765625 57.1040625 -41.84765625 51.6640625 C-21.38765625 51.6640625 -0.92765625 51.6640625 20.15234375 51.6640625 C20.15234375 74.28709915 20.15234375 74.28709915 18.15234375 80.6640625 C17.83394531 81.68628906 17.51554687 82.70851563 17.1875 83.76171875 C12.12757115 98.32818058 2.64836752 110.29268607 -11.34765625 117.1015625 C-25.9169214 123.69152651 -46.74352931 124.71239232 -61.84765625 119.5390625 C-63.87796305 118.64673013 -65.88278807 117.6925059 -67.84765625 116.6640625 C-68.76289063 116.19484375 -69.678125 115.725625 -70.62109375 115.2421875 C-73.14015156 113.8351462 -75.48920595 112.3244776 -77.84765625 110.6640625 C-78.53214844 110.18710938 -79.21664063 109.71015625 -79.921875 109.21875 C-91.46025538 100.19659795 -98.45354067 84.82711939 -100.84765625 70.6640625 C-101.0960292 65.97922191 -101.07886498 61.29233372 -101.09765625 56.6015625 C-101.11828125 55.34150391 -101.13890625 54.08144531 -101.16015625 52.78320312 C-101.23439584 34.82650287 -95.40260675 18.74308534 -82.84765625 5.6640625 C-60.73193833 -15.21676762 -24.96720494 -17.81491249 0 0 Z " fill="#FAFAFA" transform="translate(455.84765625,61.3359375)"/>
<path d="M0 0 C1.44681152 0.01752319 1.44681152 0.01752319 2.92285156 0.03540039 C14.54909463 0.39492442 22.54491158 3.99596762 30.9296875 12.09765625 C40.33286833 22.65532013 42.00225667 33.75804805 41.3203125 47.37988281 C40.3806635 57.88046041 34.97940347 67.09689292 27.5 74.3125 C16.62048977 83.0201677 5.04562904 83.80954926 -8.42333984 82.85351562 C-13.59368826 82.23978775 -17.60794777 80.45554615 -21.875 77.5625 C-22.60589844 77.10488281 -23.33679688 76.64726562 -24.08984375 76.17578125 C-32.95920634 70.14725733 -37.9182246 61.48031303 -40.46484375 51.17578125 C-42.52971735 38.01958658 -40.43638589 26.14542042 -32.953125 15.140625 C-24.39337609 4.52138764 -13.45275384 -0.21838886 0 0 Z " fill="#FAFAFA" transform="translate(653.875,245.4375)"/>
<path d="M0 0 C0.83587646 -0.00095673 1.67175293 -0.00191345 2.53295898 -0.00289917 C4.30159582 -0.00358018 6.07023515 -0.00173141 7.83886719 0.00244141 C10.55148921 0.00779079 13.26394565 0.00249375 15.9765625 -0.00390625 C17.6927087 -0.00324545 19.4088548 -0.00196426 21.125 0 C22.3469104 -0.00303635 22.3469104 -0.00303635 23.59350586 -0.00613403 C29.33258072 0.01785286 29.33258072 0.01785286 31.5625 1.1328125 C33.99177295 1.40807184 36.42103173 1.57813611 38.859375 1.75390625 C41.94796165 2.18684397 44.61988413 3.10179622 47.5625 4.1328125 C48.72523438 4.46539062 49.88796875 4.79796875 51.0859375 5.140625 C86.52016728 15.28573314 116.69630837 40.34620597 134.91796875 72.17578125 C152.27488215 103.47673183 158.29549654 141.00023477 149.11328125 175.89453125 C144.14765635 193.17362858 137.51751006 209.73901004 126.5625 224.1328125 C126.00820313 224.86757813 125.45390625 225.60234375 124.8828125 226.359375 C123.13508682 228.63866702 121.35357739 230.88744937 119.5625 233.1328125 C118.84964844 234.04417969 118.13679687 234.95554687 117.40234375 235.89453125 C112.8547116 241.61222313 108.28064245 246.59366849 102.5625 251.1328125 C101.60601562 251.91398438 100.64953125 252.69515625 99.6640625 253.5 C86.47879512 264.09537675 71.95794886 271.67080708 56 277.2578125 C55.33516602 277.49967285 54.67033203 277.7415332 53.98535156 277.99072266 C40.1970133 282.63672393 25.80178568 283.63461033 11.3659668 283.52392578 C8.86517421 283.50774894 6.36598071 283.52394054 3.86523438 283.54296875 C-9.80704044 283.56237778 -22.45180318 281.63427205 -35.375 276.9453125 C-36.21345459 276.64560547 -37.05190918 276.34589844 -37.91577148 276.03710938 C-67.43610741 265.18342764 -90.69032458 245.90341154 -108.4375 220.1328125 C-108.83195312 219.56175781 -109.22640625 218.99070312 -109.6328125 218.40234375 C-114.83776336 210.7405105 -118.53105637 202.85837308 -121.68457031 194.19311523 C-122.24331385 192.66417986 -122.81810851 191.14109019 -123.40136719 189.62133789 C-135.69652662 157.07856552 -135.22860811 119.35932747 -121.38671875 87.34765625 C-116.15894166 75.84332791 -110.32990497 65.05083472 -102.4375 55.1328125 C-101.63570312 54.10542969 -100.83390625 53.07804687 -100.0078125 52.01953125 C-95.4605464 46.30276061 -95.4605464 46.30276061 -93.4375 44.1328125 C-92.7775 44.1328125 -92.1175 44.1328125 -91.4375 44.1328125 C-91.19515625 43.55789062 -90.9528125 42.98296875 -90.703125 42.390625 C-84.03921488 30.50253843 -66.2624693 21.1138477 -54.4375 15.1328125 C-53.50679688 14.63136719 -52.57609375 14.12992188 -51.6171875 13.61328125 C-43.79863928 9.49551252 -35.87146814 6.69926807 -27.4375 4.1328125 C-26.24382812 3.76800781 -25.05015625 3.40320312 -23.8203125 3.02734375 C-20.85247748 2.24254673 -18.17543042 1.79328331 -15.125 1.5703125 C-9.90631439 1.17871128 -5.35631482 -0.01331 0 0 Z M-54.4375 22.1328125 C-56.02111328 22.98166016 -56.02111328 22.98166016 -57.63671875 23.84765625 C-87.57211508 40.47843199 -111.30592659 69.97130708 -120.87890625 102.94921875 C-127.17707805 125.77679748 -127.51337973 149.96076034 -122.4375 173.1328125 C-122.2818457 173.84373047 -122.12619141 174.55464844 -121.96582031 175.28710938 C-115.06379425 205.07190047 -96.25994405 233.27879544 -71.4375 251.1328125 C-70.64085937 251.72191406 -69.84421875 252.31101562 -69.0234375 252.91796875 C-59.76122834 259.60734203 -50.19359043 265.24866873 -39.4375 269.1328125 C-38.39078125 269.54402344 -37.3440625 269.95523437 -36.265625 270.37890625 C-4.611147 282.44628078 32.5471418 281.11100959 63.45703125 267.43359375 C67.19460057 265.73752272 70.87659553 263.93806798 74.5625 262.1328125 C75.490625 261.71128906 76.41875 261.28976562 77.375 260.85546875 C86.34904435 256.69095129 93.45804314 250.22850684 100.7734375 243.67578125 C102.5625 242.1328125 102.5625 242.1328125 104.7890625 240.55859375 C105.37429688 240.08808594 105.95953125 239.61757813 106.5625 239.1328125 C106.5625 238.4728125 106.5625 237.8128125 106.5625 237.1328125 C107.2225 237.1328125 107.8825 237.1328125 108.5625 237.1328125 C111.14554334 234.7000293 113.32156074 231.87839075 115.5625 229.1328125 C116.25859375 228.28460938 116.9546875 227.43640625 117.671875 226.5625 C138.26566515 200.34558275 147.19658197 170.16475302 146.5625 137.1328125 C146.55162354 136.05870117 146.55162354 136.05870117 146.54052734 134.96289062 C146.10010403 101.49071847 130.43557486 70.0436072 107.5625 46.1328125 C107.01464844 45.53339844 106.46679688 44.93398437 105.90234375 44.31640625 C96.65748121 34.52639211 85.36558183 27.39897951 73.5625 21.1328125 C72.51835937 20.5759375 71.47421875 20.0190625 70.3984375 19.4453125 C31.72825234 -0.53927931 -16.65272489 1.16923619 -54.4375 22.1328125 Z " fill="#194A36" transform="translate(176.4375,48.8671875)"/>
<path d="M0 0 C0 0.66 0 1.32 0 2 C-15.95535708 8.03947745 -32.73613746 13.69503009 -49.79296875 15.3828125 C-52.81328114 16.22743083 -54.0807217 17.54949288 -56 20 C-56.72189591 22.26945621 -56.72189591 22.26945621 -56.8125 24.625 C-56.88082031 25.40101562 -56.94914062 26.17703125 -57.01953125 26.9765625 C-57.14722804 29.07101033 -57.14722804 29.07101033 -56 31 C-55.39639648 31.01458252 -54.79279297 31.02916504 -54.17089844 31.04418945 C-19.27623508 31.98540083 -19.27623508 31.98540083 -6.0625 44.3125 C0.10514344 51.09841577 3.45347498 58.58130915 3.34765625 67.7421875 C2.73433589 71.7253242 0.98984899 73.34235645 -2 76 C-4.87756329 76.95918776 -6.96806494 77 -10 77 C-10 76.34 -10 75.68 -10 75 C-11.2375 75.309375 -12.475 75.61875 -13.75 75.9375 C-15.87990986 76.46997747 -18.00980293 77.00243285 -20.140625 77.53125 C-21.43181889 77.85676106 -22.71814104 78.20197717 -24 78.5625 C-26 79 -26 79 -30 79 C-30.33 78.34 -30.66 77.68 -31 77 C-31.99 77 -32.98 77 -34 77 C-33.97679687 76.38253906 -33.95359375 75.76507813 -33.9296875 75.12890625 C-33.77677291 67.95284309 -33.96603899 61.29641956 -37.8125 55.0625 C-41.99835988 51.11583212 -46.00478647 50.75346837 -51.61328125 50.8046875 C-53.29997925 50.81218018 -53.29997925 50.81218018 -55.02075195 50.81982422 C-57.14516724 50.84713623 -57.14516724 50.84713623 -59.3125 50.875 C-66.0878125 50.936875 -66.0878125 50.936875 -73 51 C-73.33 61.56 -73.66 72.12 -74 83 C-78 84 -78 84 -81 84 C-81.99 84.33 -82.98 84.66 -84 85 C-84.99 85 -85.98 85 -87 85 C-87 84.34 -87 83.68 -87 83 C-88.0725 83.474375 -89.145 83.94875 -90.25 84.4375 C-97.40745111 87.47617643 -97.40745111 87.47617643 -102 86 C-102.33 86.99 -102.66 87.98 -103 89 C-103.33 89 -103.66 89 -104 89 C-104.02505615 88.01604248 -104.0501123 87.03208496 -104.07592773 86.01831055 C-104.1701082 82.36729943 -104.2703029 78.71647384 -104.37231445 75.06567383 C-104.41562305 73.48563985 -104.45730106 71.90556031 -104.49731445 70.32543945 C-104.55511583 68.05405952 -104.6187816 65.78290811 -104.68359375 63.51171875 C-104.70030624 62.80536789 -104.71701874 62.09901703 -104.73423767 61.3712616 C-104.8259747 58.3335176 -105.03207686 55.90376942 -106 53 C-112.93 53 -119.86 53 -127 53 C-127 46.07 -127 39.14 -127 32 C-124.24390381 31.970271 -124.24390381 31.970271 -121.43212891 31.93994141 C-115.36909537 31.87223761 -109.30623001 31.79546776 -103.24338722 31.71247292 C-99.56659359 31.66247448 -95.88982918 31.61614507 -92.21289062 31.578125 C-88.66606297 31.54131654 -85.11947779 31.49496933 -81.5728569 31.44193649 C-80.2180849 31.42336878 -78.86326087 31.40826962 -77.50841141 31.39665604 C-75.61439144 31.37983491 -73.72050412 31.34966384 -71.82666016 31.31884766 C-70.20783432 31.29886215 -70.20783432 31.29886215 -68.55630493 31.2784729 C-65.8344136 31.25199493 -65.8344136 31.25199493 -64 29 C-63.47305941 27.24835684 -63.02680976 25.47200807 -62.625 23.6875 C-57.17497148 1.1010634 -57.17497148 1.1010634 -48.125 -6.375 C-31.83104991 -14.84785405 -14.293314 -9.528876 0 0 Z " fill="#1DF4A8" transform="translate(245,98)"/>
<path d="M0 0 C7.72492339 6.84029506 11.13475728 16.35566739 13.421875 26.14453125 C13.421875 30.76453125 13.421875 35.38453125 13.421875 40.14453125 C-9.018125 40.14453125 -31.458125 40.14453125 -54.578125 40.14453125 C-51.33207249 54.03313077 -51.33207249 54.03313077 -42.58984375 64.54296875 C-34.92179072 68.6152681 -25.37260536 69.74300859 -16.97265625 67.42578125 C-9.54624109 64.34077127 -6.20469056 60.39766236 -2.578125 53.14453125 C2.701875 53.14453125 7.981875 53.14453125 13.421875 53.14453125 C10.61492107 64.37234699 5.35719986 72.0118956 -4.4140625 78.33203125 C-14.06610663 83.68990065 -26.52202654 84.60441369 -37.203125 82.39453125 C-38.316875 81.98203125 -39.430625 81.56953125 -40.578125 81.14453125 C-41.33480469 80.91121094 -42.09148438 80.67789063 -42.87109375 80.4375 C-52.31767932 77.23005467 -60.9045571 70.06355397 -65.578125 61.14453125 C-71.43961839 47.34809103 -73.00140058 32.45767323 -67.90234375 18.14453125 C-62.96220978 6.95272332 -55.69919929 -1.58759146 -44.578125 -6.85546875 C-29.58559017 -12.22089532 -12.71011652 -9.14743234 0 0 Z " fill="#FAFAFA" transform="translate(703.578125,100.85546875)"/>
<path d="M0 0 C9.23652777 7.66842161 14.87670654 17.26731731 16.625 29.1875 C16.625 33.4775 16.625 37.7675 16.625 42.1875 C-5.815 42.1875 -28.255 42.1875 -51.375 42.1875 C-47.65042425 58.23381226 -47.65042425 58.23381226 -36.375 68.4375 C-28.25199359 71.4836274 -18.36398066 71.23688389 -10.30859375 68.1640625 C-6.12873465 66.05302255 -3.86314403 63.11647386 -1.72265625 59.04296875 C0.625 56.1875 0.625 56.1875 4.296875 55.6015625 C5.6574902 55.64119207 7.01749197 55.71241907 8.375 55.8125 C9.07238281 55.83957031 9.76976562 55.86664063 10.48828125 55.89453125 C12.20185705 55.96495217 13.91383302 56.07257087 15.625 56.1875 C14.35981337 65.38646112 10.16652222 71.54209954 3.08984375 77.46484375 C-0.81277728 80.19234909 -4.86526016 81.74499062 -9.375 83.1875 C-10.4475 83.6 -11.52 84.0125 -12.625 84.4375 C-20.75040348 86.0625807 -29.57915406 86.18590229 -37.375 83.1875 C-38.12910156 82.95417969 -38.88320313 82.72085938 -39.66015625 82.48046875 C-50.20575457 78.91093856 -58.26126308 70.99165124 -63.375 61.1875 C-68.81772414 48.26638717 -69.30791998 33.34161938 -64.62890625 20.15234375 C-59.64197439 8.36081329 -52.3453344 0.73020091 -40.83203125 -4.90234375 C-27.89851203 -9.69329761 -11.24447487 -7.91356439 0 0 Z " fill="#FBFBFB" transform="translate(609.375,98.8125)"/>
<path d="M0 0 C0.94359375 0.34675781 1.8871875 0.69351563 2.859375 1.05078125 C37.98801984 14.86488348 65.80963781 41.37449217 81 76 C85.85805172 88.43789324 90.05410927 101.15181219 90.625 114.5625 C90.67974487 115.72531494 90.67974487 115.72531494 90.7355957 116.91162109 C90.83834543 119.27414302 90.92353205 121.63649056 91 124 C91.03504639 125.0521167 91.03504639 125.0521167 91.07080078 126.12548828 C92.00124766 158.7067668 81.4897243 192.72296116 58.9375 216.875 C58.01839844 217.82117188 57.09929687 218.76734375 56.15234375 219.7421875 C53.97535464 221.80474396 53.97535464 221.80474396 53 224 C52.34 224 51.68 224 51 224 C51 224.66 51 225.32 51 226 C42.78423322 234.73700878 31.7071979 242.67376186 21 248 C20.08863281 248.47953125 19.17726562 248.9590625 18.23828125 249.453125 C5.57627698 256.00757427 -7.1006922 260.1419098 -21 263 C-22.05574219 263.22816406 -23.11148438 263.45632813 -24.19921875 263.69140625 C-39.05660804 266.46866987 -55.2224289 265.91248882 -70 263 C-70.7007666 262.87109375 -71.4015332 262.7421875 -72.12353516 262.609375 C-82.60620345 260.66204638 -91.46068779 257.82758715 -101 253 C-102.13566406 252.51917969 -103.27132812 252.03835938 -104.44140625 251.54296875 C-115.14523829 246.90189997 -124.29389703 240.71648839 -133 233 C-133.98871094 232.1440625 -134.97742188 231.288125 -135.99609375 230.40625 C-162.18657326 207.39771332 -178.32176837 174.73637623 -181 140 C-181.74350335 125.15794899 -181.90800468 110.41864629 -178 96 C-177.83371094 95.36271973 -177.66742188 94.72543945 -177.49609375 94.06884766 C-168.25604369 59.25610349 -145.0967081 29.3477299 -114.1640625 11.1171875 C-104.72403303 5.69423013 -95.46266134 1.11231065 -85 -2 C-84.08476562 -2.29261719 -83.16953125 -2.58523437 -82.2265625 -2.88671875 C-56.47068656 -10.62858762 -25.19133493 -9.32887671 0 0 Z M-84 3 C-84.85223145 3.29471191 -85.70446289 3.58942383 -86.58251953 3.89306641 C-98.85071174 8.25624999 -110.15727467 13.77151645 -121 21 C-121 21.66 -121 22.32 -121 23 C-121.72703125 23.24621094 -122.4540625 23.49242188 -123.203125 23.74609375 C-128.3007925 26.03150055 -131.98592842 30.19054376 -136 34 C-136.74636719 34.68191406 -137.49273437 35.36382812 -138.26171875 36.06640625 C-149.92724853 47.10363102 -158.12769858 60.61079401 -165 75 C-165.56589844 76.1653125 -166.13179687 77.330625 -166.71484375 78.53125 C-177.54541685 103.00338463 -179.88975383 133.15650572 -173 159 C-172.74259033 160.0204541 -172.74259033 160.0204541 -172.47998047 161.06152344 C-164.62468897 191.96321527 -144.55345183 222.31240833 -116.87402344 238.91845703 C-93.2821887 252.53385931 -72.1541769 259.49206977 -44.8125 259.4375 C-43.53181137 259.43756042 -43.53181137 259.43756042 -42.22525024 259.43762207 C-28.98199304 259.4019827 -28.98199304 259.4019827 -16 257 C-15.34201416 256.82863525 -14.68402832 256.65727051 -14.00610352 256.48071289 C6.25762622 250.95424114 25.15965075 241.87916316 41 228 C41.72960937 227.3915625 42.45921875 226.783125 43.2109375 226.15625 C66.3003528 206.6939076 82.6979928 174.63751742 85.80151367 144.61914062 C86.98728794 128.9721709 86.67948195 113.27748035 83 98 C82.77183594 96.99324219 82.54367187 95.98648438 82.30859375 94.94921875 C74.52558081 63.50584649 52.87186329 35.49704145 26 18 C25.04738281 17.37480469 24.09476563 16.74960938 23.11328125 16.10546875 C1.9883314 3.05337282 -20.84795761 -2.45124866 -45.5 -2.4375 C-46.24533997 -2.43790283 -46.99067993 -2.43830566 -47.75860596 -2.4387207 C-60.4002792 -2.39951438 -71.98472958 -1.17954349 -84 3 Z " fill="#041711" transform="translate(232,62)"/>
<path d="M0 0 C0.79390137 0.00829834 1.58780273 0.01659668 2.40576172 0.02514648 C11.68964582 0.29194659 18.60154089 2.97143408 25.4296875 9.37109375 C31.04367059 15.97064276 33.31777312 23.25875703 33.30102539 31.76660156 C33.30091209 33.68814056 33.30091209 33.68814056 33.30079651 35.64849854 C33.29569026 37.04170775 33.29047427 38.43491657 33.28515625 39.828125 C33.28329032 41.25730337 33.28186724 42.68648238 33.28086853 44.11566162 C33.27705715 47.87050148 33.26723867 51.62530243 33.25616455 55.38012695 C33.24592075 59.21435012 33.24136455 63.04857959 33.23632812 66.8828125 C33.22561513 74.40106143 33.20802953 81.9192703 33.1875 89.4375 C27.9075 89.4375 22.6275 89.4375 17.1875 89.4375 C17.17291748 87.7882251 17.15833496 86.1389502 17.14331055 84.43969727 C17.08514586 78.29495034 17.00791333 72.15056289 16.92504883 66.00610352 C16.89027337 63.35144197 16.86382813 60.69707104 16.84106445 58.04223633 C16.80736211 54.21666148 16.75503604 50.3917147 16.69921875 46.56640625 C16.69282883 45.38792618 16.6864389 44.20944611 16.67985535 42.99525452 C16.55033367 35.66345762 16.1987293 28.31213865 11.5390625 22.31640625 C10.96929688 21.88199219 10.39953125 21.44757813 9.8125 21 C9.24789062 20.54753906 8.68328125 20.09507813 8.1015625 19.62890625 C2.3283464 16.03537378 -3.1638721 15.67349898 -9.8125 16.4375 C-13.00465523 17.46441488 -15.87071472 18.84136304 -18.8125 20.4375 C-19.534375 20.76621094 -20.25625 21.09492187 -21 21.43359375 C-23.64764655 22.90007039 -23.86731272 24.60193817 -24.8125 27.4375 C-25.31628174 28.38375244 -25.82006348 29.33000488 -26.33911133 30.30493164 C-28.67764147 35.74991909 -28.29288329 41.54134079 -28.32421875 47.37109375 C-28.34216995 48.60416763 -28.36012115 49.83724152 -28.37861633 51.10768127 C-28.43261955 55.0300865 -28.46658421 58.9523707 -28.5 62.875 C-28.53155677 65.54106137 -28.56767204 68.20703685 -28.60351562 70.87304688 C-28.68834087 77.39444382 -28.75520051 83.91580547 -28.8125 90.4375 C-34.4225 90.4375 -40.0325 90.4375 -45.8125 90.4375 C-45.8125 61.3975 -45.8125 32.3575 -45.8125 2.4375 C-40.8625 2.4375 -35.9125 2.4375 -30.8125 2.4375 C-30.1525 6.3975 -29.4925 10.3575 -28.8125 14.4375 C-28.338125 13.73625 -27.86375 13.035 -27.375 12.3125 C-20.18731796 4.24827137 -10.74795998 -0.14462714 0 0 Z " fill="#FCFCFC" transform="translate(775.8125,91.5625)"/>
<path d="M0 0 C7.57167577 4.00853423 11.7657931 10.26074261 14.3611908 18.24516296 C15.60894708 23.62605791 15.362585 29.07120538 15.29296875 34.56640625 C15.28872391 35.84104233 15.28447906 37.11567841 15.28010559 38.42893982 C15.26623423 41.78775493 15.23936858 45.14593699 15.20599365 48.50457764 C15.17508729 51.94375188 15.16155672 55.382992 15.14648438 58.82226562 C15.1135248 65.54837174 15.06179855 72.27409954 15 79 C10.05 79 5.1 79 0 79 C-0.0093457 77.43636719 -0.01869141 75.87273437 -0.02832031 74.26171875 C-0.06830676 68.43933016 -0.13409094 62.61746511 -0.20751953 56.79541016 C-0.23567877 54.27952825 -0.25691828 51.7635587 -0.27099609 49.24755859 C-0.29249456 45.62291764 -0.3391837 41.99932483 -0.390625 38.375 C-0.39185364 37.25697998 -0.39308228 36.13895996 -0.39434814 34.98706055 C-0.52106652 28.17196753 -1.55569411 23.88395112 -5 18 C-5 17.34 -5 16.68 -5 16 C-6.11375 15.566875 -6.11375 15.566875 -7.25 15.125 C-10 14 -10 14 -11.87109375 12.94921875 C-16.21983257 11.01023979 -21.4798436 11.33603572 -26.03125 12.53515625 C-32.64580696 15.1896824 -36.20728252 18.713642 -39.203125 25 C-40.65685664 28.64858138 -41.1331057 31.94002349 -41.20532227 35.86035156 C-41.22526749 36.82104553 -41.24521271 37.7817395 -41.26576233 38.77154541 C-41.28247482 39.80084167 -41.29918732 40.83013794 -41.31640625 41.890625 C-41.33718735 42.95037537 -41.35796844 44.01012573 -41.37937927 45.10198975 C-41.44472186 48.48459438 -41.50368881 51.86727612 -41.5625 55.25 C-41.60569975 57.54427878 -41.64931451 59.83854979 -41.69335938 62.1328125 C-41.80038765 67.75512948 -41.90169833 73.37752395 -42 79 C-46.95 79 -51.9 79 -57 79 C-57 52.6 -57 26.2 -57 -1 C-52.38 -1 -47.76 -1 -43 -1 C-42.34 2.63 -41.68 6.26 -41 10 C-40.4225 9.13375 -39.845 8.2675 -39.25 7.375 C-29.98085921 -3.90334761 -12.6492547 -5.83229109 0 0 Z " fill="#F9F9F9" transform="translate(796,248)"/>
<path d="M0 0 C1.28068359 -0.020625 2.56136719 -0.04125 3.88085938 -0.0625 C5.12029297 -0.06765625 6.35972656 -0.0728125 7.63671875 -0.078125 C8.77197998 -0.0874707 9.90724121 -0.09681641 11.0769043 -0.10644531 C15.82397502 0.41650974 19.10950328 2.11383643 22.5625 5.375 C26.83191808 12.38904399 26.53290542 19.35034867 25.3125 27.25 C29.04102449 28.20876344 31.58011694 28.07941846 35.3125 27.25 C35.6425 27.58 35.9725 27.91 36.3125 28.25 C36.8796875 27.93417969 37.446875 27.61835938 38.03125 27.29296875 C40.39136074 26.21394552 42.24256229 25.83093527 44.8125 25.5625 C45.5653125 25.47613281 46.318125 25.38976562 47.09375 25.30078125 C49.37179815 25.24864282 51.12673403 25.65513964 53.3125 26.25 C55.44066413 26.09311576 55.44066413 26.09311576 57.3125 25.25 C58.3025 23.765 58.3025 23.765 59.3125 22.25 C59.9725 22.25 60.6325 22.25 61.3125 22.25 C59.8044169 28.78502675 55.56370317 34.93993459 50.0859375 38.83203125 C49.50070313 39.29996094 48.91546875 39.76789063 48.3125 40.25 C48.3125 41.24 48.3125 42.23 48.3125 43.25 C46.8275 43.745 46.8275 43.745 45.3125 44.25 C44.9825 43.92 44.6525 43.59 44.3125 43.25 C43.3225 44.24 43.3225 44.24 42.3125 45.25 C39.97577016 44.9413753 37.64256911 44.60543427 35.3125 44.25 C32.88311311 44.60232207 32.88311311 44.60232207 30.3125 45.25 C28.03114869 45.52576774 25.74715403 45.75662144 23.4609375 45.98828125 C21.17426762 46.22568272 21.17426762 46.22568272 18.4375 46.9375 C16.3125 47.25 16.3125 47.25 13.3125 45.25 C12.6525 46.24 11.9925 47.23 11.3125 48.25 C8.9375 48.375 8.9375 48.375 6.3125 48.25 C5.714375 48.415 5.11625 48.58 4.5 48.75 C1.77760905 49.37226079 -0.81685819 49.19897066 -3.59375 49.15234375 C-6.78007978 49.30095988 -9.65946678 50.3000288 -12.6875 51.25 C-16.35416667 51.25 -20.02083333 51.25 -23.6875 51.25 C-26.02960921 51.88514826 -28.36434969 52.5486716 -30.6875 53.25 C-31.3475 52.59 -32.0075 51.93 -32.6875 51.25 C-36.99865612 51.71607093 -40.83384148 53.32317074 -44.6875 55.25 C-44.74157567 52.66638482 -44.781207 50.08390745 -44.8125 47.5 C-44.82925781 46.77039063 -44.84601563 46.04078125 -44.86328125 45.2890625 C-44.89822239 41.4455376 -44.86249684 38.50393228 -42.6875 35.25 C-41.8521875 35.5284375 -41.8521875 35.5284375 -41 35.8125 C-38.27626658 36.32780092 -36.36505306 35.8841573 -33.6875 35.25 C-33.0275 35.25 -32.3675 35.25 -31.6875 35.25 C-31.3575 34.26 -31.0275 33.27 -30.6875 32.25 C-29.594375 32.58 -28.50125 32.91 -27.375 33.25 C-22.80136532 34.49030771 -20.75140722 34.49215571 -16.6875 32.25 C-16.1925 32.745 -16.1925 32.745 -15.6875 33.25 C-15.66244385 32.28586182 -15.6373877 31.32172363 -15.61157227 30.32836914 C-15.51764694 26.76312158 -15.41739061 23.19807567 -15.31518555 19.63305664 C-15.27178015 18.08785711 -15.23010929 16.54260786 -15.19018555 14.99731445 C-15.13261801 12.78060904 -15.06888576 10.5641552 -15.00390625 8.34765625 C-14.97883751 7.30545677 -14.97883751 7.30545677 -14.95326233 6.24220276 C-14.67225743 -2.78294255 -7.60423109 0.03016056 0 0 Z " fill="#1DE8A0" transform="translate(185.6875,147.75)"/>
<path d="M0 0 C8.39419023 1.90506445 14.65672937 6.24903647 19.6328125 13.3203125 C22.61412987 19.16369454 23.24011877 24.43328954 23.125 30.9375 C23.11597656 31.62134766 23.10695313 32.30519531 23.09765625 33.00976562 C23.07438958 34.67333287 23.03853167 36.33671631 23 38 C21.329375 37.7525 21.329375 37.7525 19.625 37.5 C16.27967967 36.9544542 16.27967967 36.9544542 14 37 C13.01 37.99 13.01 37.99 12 39 C11.01 38.01 10.02 37.02 9 36 C8.505 36.99 8.505 36.99 8 38 C5.9375 39.125 5.9375 39.125 4 40 C2.515 39.01 2.515 39.01 1 38 C-2.1628485 38.80404463 -2.1628485 38.80404463 -5 40 C-5.33 39.34 -5.66 38.68 -6 38 C-7.32 38.99 -8.64 39.98 -10 41 C-10 40.34 -10 39.68 -10 39 C-10.66 39 -11.32 39 -12 39 C-13.35169999 36.29660003 -13.44615887 33.74920401 -13.8125 30.75 C-14.59902618 25.58628467 -15.24528523 21.85619354 -19 18 C-24.89087675 15.00288727 -29.76731453 13.85313719 -36.29296875 13.90234375 C-36.99899734 13.9037587 -37.70502594 13.90517365 -38.43244934 13.90663147 C-40.68417626 13.91222236 -42.93580321 13.92477312 -45.1875 13.9375 C-46.71549335 13.94251618 -48.24348827 13.94707888 -49.77148438 13.95117188 C-53.51439228 13.9613373 -57.25708443 13.98091431 -61 14 C-61.33 23.9 -61.66 33.8 -62 44 C-62.99 44 -63.98 44 -65 44 C-65.33 44.66 -65.66 45.32 -66 46 C-68.47498533 46.97231567 -69.82637396 47.04006755 -72.4375 46.4375 C-75.03967586 45.75229079 -75.03967586 45.75229079 -77.4375 47.0625 C-80.88784594 48.32482168 -82.69437585 47.38374964 -86 46 C-86.33 46.66 -86.66 47.32 -87 48 C-89 48.6875 -89 48.6875 -91 49 C-92.9643271 47.0356729 -92.18747535 43.25526582 -92.203125 40.5703125 C-92.20882507 39.82417694 -92.21452515 39.07804138 -92.22039795 38.30929565 C-92.22986151 36.72720768 -92.2363873 35.14509988 -92.24023438 33.56298828 C-92.2499323 31.14190218 -92.28093823 28.7216676 -92.3125 26.30078125 C-92.3190306 24.76563006 -92.32428085 23.23047277 -92.328125 21.6953125 C-92.3404718 20.97022491 -92.3528186 20.24513733 -92.36553955 19.49807739 C-92.34324414 14.46672101 -92.34324414 14.46672101 -90.60058594 12.09716797 C-88.7373709 10.81997328 -87.13246487 9.77544177 -85 9 C-82.875 9.4375 -82.875 9.4375 -81 10 C-80.34 9.67 -79.68 9.34 -79 9 C-78.67 9.66 -78.34 10.32 -78 11 C-76.9275 10.67 -75.855 10.34 -74.75 10 C-71 9 -71 9 -67 9 C-66.01 8.835 -65.02 8.67 -64 8.5 C-61 8 -61 8 -57 8 C-54.5073001 7.77302245 -52.02276289 7.49557794 -49.53515625 7.21875 C-47 7 -47 7 -44.30859375 7.05859375 C-41.3201174 6.9827441 -40.3169521 5.81011883 -38 4 C-34.81940263 3.12533572 -32.34154018 3 -29 3 C-28.175 2.979375 -27.35 2.95875 -26.5 2.9375 C-24 3 -24 3 -22.125 3.5625 C-18.91861653 4.22263777 -16.17882831 3.6475391 -13 3 C-12.34 2.34 -11.68 1.68 -11 1 C-9.68 1 -8.36 1 -7 1 C-6.01 1.99 -6.01 1.99 -5 3 C-4.67 2.34 -4.34 1.68 -4 1 C-2.68 1 -1.36 1 0 1 C0 0.67 0 0.34 0 0 Z " fill="#1CDE99" transform="translate(233,189)"/>
<path d="M0 0 C6.83657128 4.91592918 11.69088577 11.50805821 14.3984375 19.4921875 C14.3984375 20.8121875 14.3984375 22.1321875 14.3984375 23.4921875 C9.30076947 23.9538631 4.48107505 24.20973633 -0.6015625 23.4921875 C-3.27007545 21.22799469 -4.21353566 18.64240493 -5.6015625 15.4921875 C-11.17413621 10.19824247 -16.32957856 9.06276778 -23.82421875 9.25390625 C-30.12151369 9.7941805 -34.05767412 11.55045642 -38.4140625 16.1796875 C-45.27685594 24.87569288 -45.53289366 33.75511682 -44.6015625 44.4921875 C-43.17281941 51.42024363 -40.10160226 55.64921227 -34.69921875 60.1171875 C-28.63230205 64.09401186 -22.66866429 64.22643184 -15.6015625 63.4921875 C-9.62611567 61.76812415 -6.13635492 58.48248269 -2.6015625 53.4921875 C-1.9415625 52.1721875 -1.2815625 50.8521875 -0.6015625 49.4921875 C4.3484375 49.4921875 9.2984375 49.4921875 14.3984375 49.4921875 C12.78234197 59.18876067 9.04362159 65.23703688 1.3984375 71.4921875 C-1.17750377 73.1226522 -3.75819564 74.40024814 -6.6015625 75.4921875 C-7.50003906 75.85054688 -8.39851562 76.20890625 -9.32421875 76.578125 C-13.22904136 77.66719352 -16.89515415 77.79487985 -20.9140625 77.7421875 C-21.66880859 77.73396973 -22.42355469 77.72575195 -23.20117188 77.71728516 C-34.03706671 77.49991281 -41.55795475 75.26162764 -49.58203125 67.6015625 C-58.9347447 57.47111808 -61.08719526 46.80779284 -60.84375 33.26953125 C-60.1272626 22.09463905 -56.61588555 12.30135411 -48.42578125 4.390625 C-34.1929555 -7.16279141 -16.35828654 -9.48092884 0 0 Z " fill="#FBFBFB" transform="translate(592.6015625,250.5078125)"/>
<path d="M0 0 C0.83587646 -0.00095673 1.67175293 -0.00191345 2.53295898 -0.00289917 C4.30159582 -0.00358018 6.07023515 -0.00173141 7.83886719 0.00244141 C10.55148921 0.00779079 13.26394565 0.00249375 15.9765625 -0.00390625 C17.6927087 -0.00324545 19.4088548 -0.00196426 21.125 0 C22.3469104 -0.00303635 22.3469104 -0.00303635 23.59350586 -0.00613403 C29.33258072 0.01785286 29.33258072 0.01785286 31.5625 1.1328125 C33.99177295 1.40807184 36.42103173 1.57813611 38.859375 1.75390625 C41.94796165 2.18684397 44.61988413 3.10179622 47.5625 4.1328125 C48.72523438 4.46539062 49.88796875 4.79796875 51.0859375 5.140625 C86.52016728 15.28573314 116.69630837 40.34620597 134.91796875 72.17578125 C142.30873716 85.49699569 148.50934135 98.61048777 148.5625 114.1328125 C147.0775 114.6278125 147.0775 114.6278125 145.5625 115.1328125 C142.72990216 109.7629302 140.66955047 104.62072812 138.9375 98.8203125 C128.26761814 65.296413 103.69706114 37.52223632 72.65332031 21.43652344 C39.84940634 4.91824051 1.51201814 2.04620617 -33.49609375 13.36328125 C-40.85857586 15.89462581 -47.64448128 19.36394089 -54.4375 23.1328125 C-56.02111328 23.98166016 -56.02111328 23.98166016 -57.63671875 24.84765625 C-88.07340759 41.75692783 -110.75381917 71.35708386 -120.47680664 104.71435547 C-123.67502699 116.33877217 -125.14140583 128.16774891 -126.4375 140.1328125 C-129.14890815 137.92073298 -130.33206252 136.74717264 -130.93359375 133.2421875 C-130.40608589 102.99840377 -118.41307144 72.05192729 -97.87109375 49.78515625 C-95.36401889 47.18920581 -95.36401889 47.18920581 -93.4375 44.1328125 C-92.7775 44.1328125 -92.1175 44.1328125 -91.4375 44.1328125 C-91.19515625 43.55789062 -90.9528125 42.98296875 -90.703125 42.390625 C-84.03921488 30.50253843 -66.2624693 21.1138477 -54.4375 15.1328125 C-53.50679688 14.63136719 -52.57609375 14.12992188 -51.6171875 13.61328125 C-43.79863928 9.49551252 -35.87146814 6.69926807 -27.4375 4.1328125 C-26.24382812 3.76800781 -25.05015625 3.40320312 -23.8203125 3.02734375 C-20.85247748 2.24254673 -18.17543042 1.79328331 -15.125 1.5703125 C-9.90631439 1.17871128 -5.35631482 -0.01331 0 0 Z " fill="#1DECA2" transform="translate(176.4375,48.8671875)"/>
<path d="M0 0 C6.38622773 3.9332396 11.00387455 9.81714592 12.96484375 17.06640625 C14.45955416 26.10866428 14.0173752 35.05243624 8.609375 42.640625 C3.50644818 48.94496905 -1.44191005 52.76700018 -9.71875 53.859375 C-17.89597804 54.10106647 -23.35159505 52.82097696 -29.640625 47.453125 C-36.59465959 40.16656901 -38.09035132 32.79078152 -38.07446289 22.93041992 C-37.8828333 15.56182481 -35.97546602 10.16026419 -30.99609375 4.625 C-22.12541047 -3.62493569 -10.94274486 -4.94862984 0 0 Z " fill="#0C0C0C" transform="translate(666.640625,261.546875)"/>
<path d="M0 0 C5.28 0 10.56 0 16 0 C16 7.92 16 15.84 16 24 C21.94 24 27.88 24 34 24 C34 28.29 34 32.58 34 37 C28.06 37 22.12 37 16 37 C16.06881138 43.9054691 16.15674757 50.81032892 16.26245117 57.71533203 C16.29571468 60.06454719 16.32374212 62.41384255 16.34643555 64.76318359 C16.37995468 68.1393452 16.43227049 71.51477093 16.48828125 74.890625 C16.49467117 75.94179504 16.5010611 76.99296509 16.50764465 78.07598877 C16.53733589 79.54706085 16.53733589 79.54706085 16.56762695 81.04785156 C16.57873001 81.90944885 16.58983307 82.77104614 16.60127258 83.65875244 C17.0857942 86.50376638 18.04961454 87.90015808 20 90 C22.12569555 90.69388522 22.12569555 90.69388522 24.4375 90.75 C25.58025391 90.83507812 25.58025391 90.83507812 26.74609375 90.921875 C28.82964055 90.99409499 30.91520193 91 33 91 C34.29243536 95.1196377 35.26252625 98.66831683 35 103 C27.49895739 105.85754004 18.83099717 106.75007198 11.1640625 103.97265625 C4.80228137 100.15770112 2.48599657 95.07865901 0.46607971 88.17523193 C-0.05599788 85.73865333 -0.11994774 83.53972362 -0.11352539 81.04785156 C-0.11344986 80.06713684 -0.11337433 79.08642212 -0.11329651 78.07598877 C-0.10813522 77.02481873 -0.10297394 75.97364868 -0.09765625 74.890625 C-0.0962413 73.80867859 -0.09482635 72.72673218 -0.09336853 71.61199951 C-0.08777318 68.1579715 -0.0752215 64.70400841 -0.0625 61.25 C-0.0574844 58.90755302 -0.0529216 56.56510502 -0.04882812 54.22265625 C-0.03780527 48.48174583 -0.02054379 42.74088392 0 37 C-3.96 37 -7.92 37 -12 37 C-12 32.71 -12 28.42 -12 24 C-8.04 24 -4.08 24 0 24 C0 16.08 0 8.16 0 0 Z " fill="#F6F6F6" transform="translate(492,223)"/>
<path d="M0 0 C0 5.28 0 10.56 0 16 C-3.4340625 16.12375 -3.4340625 16.12375 -6.9375 16.25 C-15.14869393 16.72655041 -21.60883274 18.10503344 -27.375 24.25 C-33.2948875 31.24308348 -33.46100842 39.45724997 -33.51171875 48.15625 C-33.52966995 49.29912476 -33.54762115 50.44199951 -33.56611633 51.61950684 C-33.62001447 55.2463011 -33.65405004 58.87296528 -33.6875 62.5 C-33.72069107 64.96876802 -33.75518237 67.43751892 -33.79101562 69.90625 C-33.87572955 75.93740585 -33.94263887 81.96852449 -34 88 C-39.28 88 -44.56 88 -50 88 C-50 59.62 -50 31.24 -50 2 C-45.05 2 -40.1 2 -35 2 C-34.34 5.3 -33.68 8.6 -33 12 C-32.030625 10.7625 -31.06125 9.525 -30.0625 8.25 C-21.40540702 -1.41851573 -12.20913534 -0.3845397 0 0 Z " fill="#FDFDFD" transform="translate(541,93)"/>
<path d="M0 0 C4.06408407 3.88738477 4.22137981 6.73079188 4.62109375 12.19921875 C5.08158087 15.6030256 5.99532237 18.71547698 7 22 C7.36996094 23.23234375 7.73992187 24.4646875 8.12109375 25.734375 C12.92844572 40.72957929 20.55378063 55.1357418 31 67 C31.67289063 67.79148437 32.34578125 68.58296875 33.0390625 69.3984375 C41.56221732 79.18651283 50.70388791 87.55515203 62 94 C62.62148926 94.35980957 63.24297852 94.71961914 63.88330078 95.09033203 C73.26122221 100.47399543 82.49308247 104.73576135 92.96972656 107.46484375 C95.01004677 108.00264821 97.02987498 108.59430456 99.0546875 109.1875 C129.91349089 117.65995073 162.63672556 110.41624655 190 95 C194.77541422 92.18387654 199.39190719 89.32403554 203.67578125 85.796875 C206 84 206 84 208 84 C208 83.34 208 82.68 208 82 C209.43359375 80.625 209.43359375 80.625 211.4375 79 C221.57318868 70.35064022 229.30932179 59.87878216 235.95703125 48.3984375 C236.30121094 47.93695313 236.64539063 47.47546875 237 47 C237.66 47 238.32 47 239 47 C239.33 46.01 239.66 45.02 240 44 C241.32 44.33 242.64 44.66 244 45 C242.74338263 50.27912273 241.02011069 53.9031159 237.8125 58.375 C237.4117627 58.93662842 237.01102539 59.49825684 236.59814453 60.0769043 C215.6630185 89.22196535 186.07059207 111.5359835 149.87182617 117.5168457 C145.73052821 118.03362663 141.69125152 118.21363798 137.5234375 118.2734375 C136.72416336 118.28605621 135.92488922 118.29867493 135.10139465 118.31167603 C96.6673836 118.80112109 63.93999312 109.24750771 35.56152344 81.96386719 C28.00414522 74.52462428 21.48905924 67.1149622 16 58 C15.64615234 57.41589355 15.29230469 56.83178711 14.92773438 56.22998047 C8.8505198 46.12917489 4.01988333 36.08594376 0.75 24.75 C0.48622559 23.83774658 0.22245117 22.92549316 -0.04931641 21.9855957 C-2.00632974 14.82737983 -2.74455251 8.43173708 -2 1 C-1.34 0.67 -0.68 0.34 0 0 Z " fill="#1DEDA2" transform="translate(60,203)"/>
<path d="M0 0 C5.61 -0.061875 11.22 -0.12375 17 -0.1875 C18.75441406 -0.21481201 20.50882812 -0.24212402 22.31640625 -0.27026367 C23.73176387 -0.27903851 25.14712915 -0.28668008 26.5625 -0.29296875 C27.27728516 -0.30831665 27.99207031 -0.32366455 28.72851562 -0.33947754 C35.25201748 -0.34281039 40.66467827 1.07984657 45.8125 5.3125 C49.85468695 10.27861539 51.58126826 14.31525829 51.35546875 20.69140625 C50.48167426 26.36626939 47.50721669 31.44885957 43 35 C38.42944158 37.39504776 34.2265161 37.25974609 29.19921875 37.1953125 C27.9446563 37.19106766 27.9446563 37.19106766 26.66474915 37.18673706 C24.00551774 37.1755832 21.34662882 37.15048763 18.6875 37.125 C16.87956217 37.11496399 15.07161904 37.10583923 13.26367188 37.09765625 C8.84221128 37.07736501 4.42148695 37.03820776 0 37 C0 24.79 0 12.58 0 0 Z " fill="#0B0B0B" transform="translate(377,275)"/>
<path d="M0 0 C5.115 -0.061875 10.23 -0.12375 15.5 -0.1875 C17.89668945 -0.22846802 17.89668945 -0.22846802 20.34179688 -0.27026367 C35.91175253 -0.36144792 35.91175253 -0.36144792 42.8125 5.3125 C46.85033402 10.27326751 48.60776719 14.32264077 48.33984375 20.69921875 C47.46273593 26.63733951 44.83551372 30.64756376 40.1875 34.375 C34.70907067 38.41887155 28.64378871 39.25461146 21.97265625 39.1953125 C20.81258057 39.19031738 19.65250488 39.18532227 18.45727539 39.18017578 C17.00699951 39.16196777 15.55672363 39.14375977 14.0625 39.125 C9.421875 39.08375 4.78125 39.0425 0 39 C0 26.13 0 13.26 0 0 Z " fill="#02130E" transform="translate(172,202)"/>
<path d="M0 0 C5.28 -0.061875 10.56 -0.12375 16 -0.1875 C17.65 -0.21481201 19.3 -0.24212402 21 -0.27026367 C29.64045628 -0.35388826 36.33990448 -0.00317267 43.8125 4.8125 C47.93379353 8.93379353 49.20616047 12.63321678 49.5 18.375 C49.28557813 24.9506041 47.11231296 28.78892676 42.60742188 33.43676758 C35.42634438 39.0033865 26.08094436 37.52870735 17.5 37.3125 C11.725 37.209375 5.95 37.10625 0 37 C0 24.79 0 12.58 0 0 Z " fill="#0B0B0B" transform="translate(377,224)"/>
<path d="M0 0 C5.28 0 10.56 0 16 0 C16 0.33 16 0.66 16 1 C11.05 1 6.1 1 1 1 C1 7.27 1 13.54 1 20 C3.62453125 19.91621094 6.2490625 19.83242188 8.953125 19.74609375 C11.49817194 19.66866415 14.04326902 19.59315072 16.58837891 19.51782227 C18.35569314 19.46448835 20.12294855 19.4091659 21.89013672 19.35180664 C24.43183712 19.269655 26.97366403 19.19468212 29.515625 19.12109375 C30.30430969 19.09405869 31.09299438 19.06702362 31.90557861 19.03916931 C37.54510618 18.8861122 37.54510618 18.8861122 40.11175537 19.52870178 C42.41413928 20.10336749 43.7471345 19.65405773 46 19 C46.99 19 47.98 19 49 19 C49.99 18.67 50.98 18.34 52 18 C52.33 18.33 52.66 18.66 53 19 C54.80927281 19.12487758 56.62396107 19.17570846 58.4375 19.1875 C59.92056641 19.20876953 59.92056641 19.20876953 61.43359375 19.23046875 C64.16584415 19.26150753 64.16584415 19.26150753 66 17 C66.66 17.33 67.32 17.66 68 18 C68.66 17.34 69.32 16.68 70 16 C71.67293936 16.30027117 73.33985384 16.63557767 75 17 C75.99 16.67 76.98 16.34 78 16 C79.32 16 80.64 16 82 16 C82.99 15.34 83.98 14.68 85 14 C88.02246908 14 91.04057023 14.00082796 94.0625 14.0625 C96.93459792 14.21107035 96.93459792 14.21107035 99 13 C100.0725 13.165 101.145 13.33 102.25 13.5 C105.89580135 13.98610685 108.45764174 13.90618467 112 13 C112.66 12.34 113.32 11.68 114 11 C114.99 11.99 115.98 12.98 117 14 C107.56000188 21.84418891 95.55228547 21.40181863 84 21 C84 30.24 84 39.48 84 49 C78.06 49 72.12 49 66 49 C66 39.76 66 30.52 66 21 C62.04 21 58.08 21 54 21 C54 30.24 54 39.48 54 49 C47.73 49 41.46 49 35 49 C35 39.76 35 30.52 35 21 C23.45 21 11.9 21 0 21 C0 14.07 0 7.14 0 0 Z " fill="#1A9F6F" transform="translate(119,241)"/>
<path d="M0 0 C4.49625 -0.061875 8.9925 -0.12375 13.625 -0.1875 C15.03217285 -0.21481201 16.4393457 -0.24212402 17.88916016 -0.27026367 C19.01112793 -0.27775635 20.1330957 -0.28524902 21.2890625 -0.29296875 C23.00150146 -0.31653442 23.00150146 -0.31653442 24.74853516 -0.34057617 C29.51173105 0.15834696 32.78832366 1.85563901 36.25 5.125 C39.8117843 10.97650278 40.54688397 17.20306511 39.5390625 23.9296875 C38.10608445 29.43315393 34.49777363 32.80421347 30 36 C27.18175808 37.40912096 24.82748718 37.11183553 21.6796875 37.09765625 C20.54772949 37.09515869 19.41577148 37.09266113 18.24951172 37.09008789 C16.80592285 37.08098389 15.36233398 37.07187988 13.875 37.0625 C9.29625 37.041875 4.7175 37.02125 0 37 C0 24.79 0 12.58 0 0 Z " fill="#03130E" transform="translate(172,148)"/>
<path d="M0 0 C4.95 0 9.9 0 15 0 C15 26.4 15 52.8 15 80 C10.05 80 5.1 80 0 80 C0 53.6 0 27.2 0 0 Z " fill="#F6F6F6" transform="translate(456,247)"/>
<path d="M0 0 C4.95 0 9.9 0 15 0 C15 25.74 15 51.48 15 78 C10.05 78 5.1 78 0 78 C0 52.26 0 26.52 0 0 Z " fill="#FEFEFE" transform="translate(707,248)"/>
<path d="M0 0 C5.56245405 3.76999951 9.14445561 7.50559464 11 14 C11 16.31 11 18.62 11 21 C-5.5 21 -22 21 -39 21 C-37.80058849 11.40470794 -35.30543838 6.15048464 -27.73828125 0.1875 C-19.87156215 -5.18661822 -8.22340811 -4.25452376 0 0 Z " fill="#0C0C0C" transform="translate(689,109)"/>
<path d="M0 0 C4.51524436 3.84843612 7.17068095 8.41041403 9 14 C9 15.98 9 17.96 9 20 C-7.5 20 -24 20 -41 20 C-39.85798272 9.72184447 -37.678416 5.8223988 -30.0625 -0.51953125 C-21.46385995 -6.69166113 -8.70111664 -5.19013975 0 0 Z " fill="#0C0C0C" transform="translate(600,110)"/>
<path d="M0 0 C5.48269347 6.03096282 6.26606806 11.96715434 6.125 19.9375 C6.11597656 20.62134766 6.10695313 21.30519531 6.09765625 22.00976562 C6.07438958 23.67333287 6.03853167 25.33671631 6 27 C4.88625 26.835 3.7725 26.67 2.625 26.5 C-0.72032033 25.9544542 -0.72032033 25.9544542 -3 26 C-3.66 26.66 -4.32 27.32 -5 28 C-5.99 27.01 -6.98 26.02 -8 25 C-8.33 25.66 -8.66 26.32 -9 27 C-11.0625 28.125 -11.0625 28.125 -13 29 C-13.99 28.34 -14.98 27.68 -16 27 C-19.1628485 27.80404463 -19.1628485 27.80404463 -22 29 C-22.33 28.34 -22.66 27.68 -23 27 C-24.32 27.99 -25.64 28.98 -27 30 C-27 29.34 -27 28.68 -27 28 C-27.66 28 -28.32 28 -29 28 C-30.35169999 25.29660003 -30.44615887 22.74920401 -30.8125 19.75 C-31.5939063 14.30419917 -32.71915748 11.29903503 -36 7 C-35.67 6.01 -35.34 5.02 -35 4 C-35 4.66 -35 5.32 -35 6 C-34.34 6 -33.68 6 -33 6 C-32.34 5.34 -31.68 4.68 -31 4 C-28.6171875 4.0234375 -28.6171875 4.0234375 -25.875 4.375 C-24.96492187 4.48585937 -24.05484375 4.59671875 -23.1171875 4.7109375 C-22.41851562 4.80632812 -21.71984375 4.90171875 -21 5 C-20.67 4.34 -20.34 3.68 -20 3 C-19.21625 3.20625 -18.4325 3.4125 -17.625 3.625 C-16.75875 3.74875 -15.8925 3.8725 -15 4 C-14.34 3.34 -13.68 2.68 -13 2 C-11.88625 2.33 -10.7725 2.66 -9.625 3 C-6.30540283 4.088643 -6.30540283 4.088643 -4 4 C-3.34 3.01 -2.68 2.02 -2 1 C-1.505 1.99 -1.505 1.99 -1 3 C-0.67 2.01 -0.34 1.02 0 0 Z " fill="#1CCE8E" transform="translate(250,200)"/>
<path d="M0 0 C0.99 0 1.98 0 3 0 C4.32 0 5.64 0 7 0 C7 7.26 7 14.52 7 22 C6.01 22 5.02 22 4 22 C3.67 22.66 3.34 23.32 3 24 C0.52501467 24.97231567 -0.82637396 25.04006755 -3.4375 24.4375 C-6.03967586 23.75229079 -6.03967586 23.75229079 -8.4375 25.0625 C-11.88784594 26.32482168 -13.69437585 25.38374964 -17 24 C-17.33 24.66 -17.66 25.32 -18 26 C-20 26.6875 -20 26.6875 -22 27 C-24.41112739 24.58887261 -23.18546779 18.36434528 -23.1875 15.125 C-23.19974609 14.10535156 -23.21199219 13.08570313 -23.22460938 12.03515625 C-23.22654297 11.05675781 -23.22847656 10.07835937 -23.23046875 9.0703125 C-23.23457764 8.17070801 -23.23868652 7.27110352 -23.24291992 6.34423828 C-23 4 -23 4 -21 1 C-20.2575 1.20625 -19.515 1.4125 -18.75 1.625 C-15.56648274 2.05911599 -14.72678617 1.53381722 -12 0 C-7.641389 -1.06307585 -4.32462973 -1.08115743 0 0 Z " fill="#1CCF8F" transform="translate(164,211)"/>
<path d="M0 0 C3.84570312 1.62597656 3.84570312 1.62597656 5.234375 4.9921875 C6.33120042 9.66698307 6.30089869 14.34613031 6.25 19.125 C6.23767334 20.52866821 6.23767334 20.52866821 6.22509766 21.96069336 C5.92780936 40.45170599 0.69837185 58.24071261 -7 75 C-8.65 74.67 -10.3 74.34 -12 74 C-12.495 74.99 -12.495 74.99 -13 76 C-13.66 75.67 -14.32 75.34 -15 75 C-14.62488281 74.23558594 -14.24976563 73.47117187 -13.86328125 72.68359375 C-4.90838584 53.9392157 -0.64090615 35.71428501 -0.3125 15.0625 C-0.27920337 13.5891649 -0.24470318 12.11585649 -0.20898438 10.64257812 C-0.12552771 7.09524949 -0.05807725 3.54784601 0 0 Z " fill="#1AAB77" transform="translate(312,174)"/>
<path d="M0 0 C5.11874005 4.60783002 9.62077925 10.11322346 10.171875 17.21484375 C10.18543696 19.14403237 10.10139841 21.07343025 10 23 C9.071875 22.175 8.14375 21.35 7.1875 20.5 C-4.61000084 10.4590687 -16.26934569 4.60172273 -31 0 C-23.01715285 -8.67184289 -8.71298161 -6.14510117 0 0 Z " fill="#1DECA2" transform="translate(173,88)"/>
<path d="M0 0 C5.75529551 8.63294327 4.33745811 22.41931498 4.3125 32.4375 C4.32861328 33.72720703 4.34472656 35.01691406 4.36132812 36.34570312 C4.3658444 45.36469934 3.76706956 54.36037792 1 63 C-0.485 63.99 -0.485 63.99 -2 65 C-4.67745237 61.11667213 -4.00105483 57.21364827 -3.625 52.75 C-3.51228159 51.12001943 -3.40296873 49.48980017 -3.296875 47.859375 C-3.24337891 47.04146484 -3.18988281 46.22355469 -3.13476562 45.38085938 C-2.60763946 36.0682972 -2.94318709 26.7435609 -3.4375 17.4375 C-3.47665527 16.69951172 -3.51581055 15.96152344 -3.55615234 15.20117188 C-3.82070625 10.75342269 -4.31159492 6.40232158 -5 2 C-3.515 2.99 -3.515 2.99 -2 4 C-1.34 4 -0.68 4 0 4 C0 2.68 0 1.36 0 0 Z " fill="#176145" transform="translate(325,159)"/>
<path d="M0 0 C0.33 0 0.66 0 1 0 C1 9.24 1 18.48 1 28 C-5.27 28 -11.54 28 -18 28 C-18 21.07 -18 14.14 -18 7 C-17.01 8.32 -16.02 9.64 -15 11 C-14.01 11 -13.02 11 -12 11 C-11.54625 10.484375 -11.0925 9.96875 -10.625 9.4375 C-10.08875 8.963125 -9.5525 8.48875 -9 8 C-6.12631508 8.28736849 -3.74209856 9.08596715 -1 10 C-0.67 6.7 -0.34 3.4 0 0 Z " fill="#1A9A6B" transform="translate(172,262)"/>
<path d="M0 0 C0.28875 0.598125 0.5775 1.19625 0.875 1.8125 C2.04742026 4.19327792 2.04742026 4.19327792 4 7 C3.05859375 9.6875 3.05859375 9.6875 1.4375 13 C-5.83812095 28.88834912 -8.13256508 45.7605292 -10 63 C-12.71140815 60.78792048 -13.89456252 59.61436014 -14.49609375 56.109375 C-14.15332994 36.45758306 -8.97749602 17.50199912 0 0 Z " fill="#1A986A" transform="translate(60,126)"/>
<path d="M0 0 C2.82689795 1.25639909 4.47004961 2.32551768 6.375 4.75 C7.31840286 8.14625031 6.83569266 10.59753701 6 14 C4.17660948 16.70567626 2.92542564 18.53728718 0 20 C-3.3125 20.375 -3.3125 20.375 -7 20 C-9.63016161 17.8272578 -11.47336894 16.05326212 -13 13 C-13.39447548 8.81855989 -13.45035186 6.69053952 -11.125 3.125 C-7.53413571 -0.46586429 -5.00759994 -0.3394983 0 0 Z " fill="#F8F8F8" transform="translate(467,209)"/>
<path d="M0 0 C2.75329021 1.79562405 4.52627461 3.05254922 6 6 C6.36206054 10.41713859 6.51432609 12.94898583 4.5625 16.9375 C0.94098024 19.85238176 -2.39406378 20.44335215 -7 20 C-9.92143417 18.23496686 -11.47923817 17.04152365 -13 14 C-13.47844415 10.9173662 -13.55149629 8.07565238 -13 5 C-9.11265243 0.35414559 -5.98805544 -0.97986362 0 0 Z " fill="#FAFAFA" transform="translate(718,209)"/>
<path d="M0 0 C4.06408407 3.88738477 4.22137981 6.73079188 4.62109375 12.19921875 C6.42097316 25.50348204 12.64242383 39.29935449 19 51 C18.401875 50.79375 17.80375 50.5875 17.1875 50.375 C14.71549154 49.69328085 14.71549154 49.69328085 12 52 C8.24495609 44.12692461 4.72929575 36.28939 2 28 C1.62617187 26.89785156 1.25234375 25.79570312 0.8671875 24.66015625 C-1.68363177 16.58850786 -2.50507176 9.44592217 -2 1 C-1.34 0.67 -0.68 0.34 0 0 Z " fill="#1A996B" transform="translate(60,203)"/>
<path d="M0 0 C1.32 0.33 2.64 0.66 4 1 C3.86722656 1.78503906 3.73445313 2.57007813 3.59765625 3.37890625 C3.42105469 4.42949219 3.24445313 5.48007813 3.0625 6.5625 C2.88847656 7.59503906 2.71445313 8.62757813 2.53515625 9.69140625 C1.59128728 15.52685894 0.87602007 21.10451479 0.90234375 27.02734375 C0.90556641 28.31318359 0.90878906 29.59902344 0.91210938 30.92382812 C0.92046198 32.26171945 0.92892689 33.59961007 0.9375 34.9375 C0.94252341 36.30273274 0.94708483 37.66796726 0.95117188 39.03320312 C0.96291149 42.35551457 0.97933321 45.67773408 1 49 C0.34 48.34 -0.32 47.68 -1 47 C-1.99 47.495 -1.99 47.495 -3 48 C-3.65772428 51.02934491 -3.65772428 51.02934491 -4 54 C-4.33 54 -4.66 54 -5 54 C-7.80222682 38.9583877 -9.08342774 16.16685549 -2 2 C-1.34 2 -0.68 2 0 2 C0 1.34 0 0.68 0 0 Z " fill="#166447" transform="translate(62,157)"/>
<path d="M0 0 C0.99 0 1.98 0 3 0 C3 0.66 3 1.32 3 2 C3.99 2 4.98 2 6 2 C7.4386287 4.03729372 8.69057842 6.03684111 9.9375 8.1875 C16.80206919 19.42435132 25.92481208 28.57856767 36 37 C35.34 37.66 34.68 38.32 34 39 C33.01 38.67 32.02 38.34 31 38 C29.515 38.495 29.515 38.495 28 39 C18.21570529 29.65378289 9.06402093 20.60754612 2 9 C1.42378906 8.10410156 0.84757812 7.20820313 0.25390625 6.28515625 C-1 4 -1 4 -0.6875 1.6875 C-0.460625 1.130625 -0.23375 0.57375 0 0 Z " fill="#1DE39C" transform="translate(74,252)"/>
<path d="M0 0 C2.91666661 3.48577229 4.70308239 7.36479513 6.5 11.5 C6.80752197 12.20761475 7.11504395 12.91522949 7.43188477 13.64428711 C10.88892932 21.8145617 13.61092401 30.03978112 13 39 C11.515 39.495 11.515 39.495 10 40 C7.09947171 34.4921151 4.91083299 29.1213524 3.0625 23.1875 C0.82407301 16.21919196 -1.73260112 9.56371279 -5 3 C-3.35 2.01 -1.7 1.02 0 0 Z " fill="#1BBE84" transform="translate(312,124)"/>
<path d="M0 0 C0.33 0 0.66 0 1 0 C1.04898438 0.68707031 1.09796875 1.37414062 1.1484375 2.08203125 C1.22320312 2.98308594 1.29796875 3.88414062 1.375 4.8125 C1.44460937 5.70582031 1.51421875 6.59914062 1.5859375 7.51953125 C1.86645036 10.24398499 1.86645036 10.24398499 4 13 C4.33 11.02 4.66 9.04 5 7 C5.33 7 5.66 7 6 7 C6.02505615 7.56396484 6.0501123 8.12792969 6.07592773 8.70898438 C6.19318301 11.30614882 6.31531266 13.9030631 6.4375 16.5 C6.47681641 17.386875 6.51613281 18.27375 6.55664062 19.1875 C6.75058124 23.24533449 6.9905221 27.26035611 7.5234375 31.2890625 C7.93870996 34.5227415 8.16443977 37.61889576 8.1875 40.875 C8.20167969 41.80054688 8.21585938 42.72609375 8.23046875 43.6796875 C8 46 8 46 6 48 C-1.6685324 38.79776111 -0.26941092 25.56309715 -0.125 14.25 C-0.11493717 12.85938154 -0.10581723 11.46875592 -0.09765625 10.078125 C-0.07432595 6.71856181 -0.0415923 3.35937825 0 0 Z " fill="#16714F" transform="translate(45,175)"/>
<path d="M0 0 C1.32 0.33 2.64 0.66 4 1 C2.74338263 6.27912273 1.02011069 9.9031159 -2.1875 14.375 C-2.58533691 14.93082764 -2.98317383 15.48665527 -3.39306641 16.05932617 C-4.58473747 17.71426592 -5.79139434 19.35740651 -7 21 C-7.67417969 21.93714844 -8.34835937 22.87429688 -9.04296875 23.83984375 C-12.4722945 28.46833672 -12.4722945 28.46833672 -14 30 C-17 30 -17 30 -18.6875 28.5 C-19.120625 28.005 -19.55375 27.51 -20 27 C-19.66266846 26.55720703 -19.32533691 26.11441406 -18.9777832 25.65820312 C-17.41915901 23.60812566 -15.86582079 21.5540983 -14.3125 19.5 C-13.51682617 18.45585937 -13.51682617 18.45585937 -12.70507812 17.390625 C-9.55043422 13.21023799 -6.68430798 8.99016183 -4.06713867 4.45117188 C-3.71498291 3.97228516 -3.36282715 3.49339844 -3 3 C-2.34 3 -1.68 3 -1 3 C-0.67 2.01 -0.34 1.02 0 0 Z " fill="#1CD190" transform="translate(300,247)"/>
<path d="M0 0 C3.84521484 1.62792969 3.84521484 1.62792969 5.23828125 4.9765625 C6.3574463 9.73639977 6.2534996 14.51187182 6.1875 19.375 C6.18685547 20.26960938 6.18621094 21.16421875 6.18554688 22.0859375 C6.14821637 27.79335755 5.720654 33.33854218 5 39 C4.896875 38.360625 4.79375 37.72125 4.6875 37.0625 C4.3471875 36.0415625 4.3471875 36.0415625 4 35 C3.01 34.67 2.02 34.34 1 34 C0.34 35.98 -0.32 37.96 -1 40 C-1.33 40 -1.66 40 -2 40 C-1.76228882 38.26073242 -1.76228882 38.26073242 -1.51977539 36.48632812 C-1.00975378 32.39536943 -0.79996527 28.34162667 -0.68359375 24.21875 C-0.66281265 23.51979614 -0.64203156 22.82084229 -0.62062073 22.10070801 C-0.55601465 19.90055741 -0.49666091 17.70030304 -0.4375 15.5 C-0.39422983 13.99478158 -0.35061307 12.48957307 -0.30664062 10.984375 C-0.20042681 7.32302256 -0.09891804 3.66155766 0 0 Z " fill="#167652" transform="translate(312,174)"/>
<path d="M0 0 C1.0828125 0.804375 1.0828125 0.804375 2.1875 1.625 C4.93706631 3.35911051 4.93706631 3.35911051 7.8125 2.1875 C8.534375 1.795625 9.25625 1.40375 10 1 C10.33 1.66 10.66 2.32 11 3 C12.32 2.67 13.64 2.34 15 2 C15.81642254 3.26831693 16.62799105 4.53975931 17.4375 5.8125 C18.11619141 6.87404297 18.11619141 6.87404297 18.80859375 7.95703125 C21.38574397 12.37621015 21.08132343 16.03927068 21 21 C20.071875 20.175 19.14375 19.35 18.1875 18.5 C11.62034771 12.88054652 4.82815594 7.7129139 -3 4 C-2.01 2.68 -1.02 1.36 0 0 Z " fill="#1DE79F" transform="translate(162,90)"/>
<path d="M0 0 C1.36125 0.4640625 1.36125 0.4640625 2.75 0.9375 C4.58604031 1.53774395 6.43556191 2.10594749 8.3125 2.5625 C10 3 10 3 11 4 C11 6.97 11 9.94 11 13 C5.06 13 -0.88 13 -7 13 C-7 9.37 -7 5.74 -7 2 C-5.68 2.33 -4.36 2.66 -3 3 C-2.67 2.67 -2.34 2.34 -2 2 C-1.34 1.34 -0.68 0.68 0 0 Z " fill="#188D62" transform="translate(192,277)"/>
<path d="M0 0 C0.28875 0.598125 0.5775 1.19625 0.875 1.8125 C2.04742026 4.19327792 2.04742026 4.19327792 4 7 C2.98828125 10.0390625 2.98828125 10.0390625 1.3125 13.625 C-0.60688517 17.79628355 -2.36375025 21.88743731 -3.625 26.3125 C-4.07875 27.529375 -4.5325 28.74625 -5 30 C-7.0234375 30.79296875 -7.0234375 30.79296875 -9 31 C-10 30 -10 30 -10.26953125 27.5 C-9.91661019 22.91714099 -8.42020085 19.22541937 -6.6875 15 C-6.37876953 14.21882812 -6.07003906 13.43765625 -5.75195312 12.6328125 C-4.02476735 8.31302997 -2.151135 4.13017919 0 0 Z " fill="#1BB47D" transform="translate(60,126)"/>
<path d="M0 0 C4.0103334 6.0155001 3.13257295 13.98192501 3.0625 21 C3.05798828 21.87011719 3.05347656 22.74023438 3.04882812 23.63671875 C3.0371736 25.75784293 3.01924357 27.8789311 3 30 C2.34 30 1.68 30 1 30 C0.67 30.66 0.34 31.32 0 32 C-0.33 30.35 -0.66 28.7 -1 27 C-1.66 27 -2.32 27 -3 27 C-3.09087891 25.17275391 -3.09087891 25.17275391 -3.18359375 23.30859375 C-3.26806403 21.68488723 -3.35270872 20.06118978 -3.4375 18.4375 C-3.49647461 17.23770508 -3.49647461 17.23770508 -3.55664062 16.01367188 C-3.80748156 11.28628494 -4.25321814 6.67523099 -5 2 C-3.515 2.99 -3.515 2.99 -2 4 C-1.34 4 -0.68 4 0 4 C0 2.68 0 1.36 0 0 Z " fill="#18845C" transform="translate(325,159)"/>
<path d="M0 0 C2.84467143 0.30753205 4.53029545 0.54836101 6.625 2.5625 C8.09286452 5.16462346 9.1111627 7.81613674 10.10546875 10.62890625 C11.82591736 15.189222 13.94553092 19.58248545 16 24 C15.1028125 23.690625 15.1028125 23.690625 14.1875 23.375 C11.71549154 22.69328085 11.71549154 22.69328085 9 25 C0 6.15533981 0 6.15533981 0 0 Z " fill="#1AAA76" transform="translate(63,230)"/>
<path d="M0 0 C0.33 0 0.66 0 1 0 C1 9.24 1 18.48 1 28 C-5.27 28 -11.54 28 -18 28 C-18 24.7 -18 21.4 -18 18 C-17.34 18.33 -16.68 18.66 -16 19 C-16 19.66 -16 20.32 -16 21 C-15.34 21 -14.68 21 -14 21 C-13.67 20.01 -13.34 19.02 -13 18 C-12.34 18.99 -11.68 19.98 -11 21 C-7.22888214 22.25703929 -4.77111786 22.25703929 -1 21 C-0.67 14.07 -0.34 7.14 0 0 Z " fill="#188059" transform="translate(172,262)"/>
<path d="M0 0 C1.65 0.33 3.3 0.66 5 1 C8.19070643 10.42321967 10.19426779 20.01762457 10 30 C9.67 30 9.34 30 9 30 C8.67 27.69 8.34 25.38 8 23 C6.68 23 5.36 23 4 23 C1.99885101 19.49580461 1.17182531 15.99024543 0.3125 12.0625 C-0.09548828 10.25458984 -0.09548828 10.25458984 -0.51171875 8.41015625 C-0.97257383 5.19154438 -0.87554478 3.09672551 0 0 Z " fill="#16563E" transform="translate(308,153)"/>
<path d="M0 0 C1.485 0.99 1.485 0.99 3 2 C3.66 1.67 4.32 1.34 5 1 C5.33 9.25 5.66 17.5 6 26 C5.34 25.34 4.68 24.68 4 24 C3.34 24.33 2.68 24.66 2 25 C1.34227572 28.02934491 1.34227572 28.02934491 1 31 C0.67 31 0.34 31 0 31 C-1.9486323 20.77741311 -1.17536061 10.28440533 0 0 Z " fill="#167753" transform="translate(57,180)"/>
<path d="M0 0 C0.99 0 1.98 0 3 0 C3 0.66 3 1.32 3 2 C3.99 2 4.98 2 6 2 C7.7165238 4.24422888 9.20934521 6.4196338 10.6875 8.8125 C11.10322266 9.45509766 11.51894531 10.09769531 11.94726562 10.75976562 C15 15.59702124 15 15.59702124 15 19 C14.34 18.67 13.68 18.34 13 18 C12.34 19.32 11.68 20.64 11 22 C9.56052003 19.93885782 8.12337429 17.87615188 6.6875 15.8125 C6.28337891 15.23435547 5.87925781 14.65621094 5.46289062 14.06054688 C-1.08601511 4.6365118 -1.08601511 4.6365118 -0.6875 1.6875 C-0.460625 1.130625 -0.23375 0.57375 0 0 Z " fill="#1CCB8C" transform="translate(74,252)"/>
<path d="M0 0 C1.8108522 3.34436667 2.98452722 6.75083094 4.125 10.375 C4.65480469 12.02628906 4.65480469 12.02628906 5.1953125 13.7109375 C5.98716765 16.94754931 6.15026819 19.68408203 6 23 C5.34 23 4.68 23 4 23 C4 23.66 4 24.32 4 25 C3.34 25 2.68 25 2 25 C-1.30357694 17.06889353 -3.85445386 9.5317541 -5 1 C-4.01 1.99 -3.02 2.98 -2 4 C-1.34 2.68 -0.68 1.36 0 0 Z " fill="#17563E" transform="translate(53,218)"/>
<path d="M0 0 C0.268125 0.639375 0.53625 1.27875 0.8125 1.9375 C1.88667752 4.33131686 1.88667752 4.33131686 5 5 C4.50104522 12.15168515 1.68436185 18.41291281 -1 25 C-1.66 25 -2.32 25 -3 25 C-3 24.34 -3 23.68 -3 23 C-3.66 23 -4.32 23 -5 23 C-4.44636539 14.97229811 -2.34312056 7.66145933 0 0 Z " fill="#17563F" transform="translate(320,218)"/>
<path d="M0 0 C8.72271127 10.33802817 8.72271127 10.33802817 9.3125 16 C9.1578125 16.99 9.1578125 16.99 9 18 C6 18 6 18 3 17 C1.32648151 14.71372518 -0.1965135 12.46187062 -1.6875 10.0625 C-2.10322266 9.41603516 -2.51894531 8.76957031 -2.94726562 8.10351562 C-6 3.27628541 -6 3.27628541 -6 1 C-4.7934375 1.0309375 -4.7934375 1.0309375 -3.5625 1.0625 C-1.06645115 1.29633621 -1.06645115 1.29633621 0 0 Z " fill="#1CDB97" transform="translate(303,109)"/>
<path d="M0 0 C3.92286166 3.92286166 4.74978815 10.93107508 5.19140625 16.34765625 C5.18821921 17.89974614 5.10557941 19.45150196 5 21 C4.01 21.33 3.02 21.66 2 22 C-1.14819255 16.13784836 -3.26375242 10.4188547 -5 4 C-4.360625 3.71125 -3.72125 3.4225 -3.0625 3.125 C-0.84793921 2.17176549 -0.84793921 2.17176549 0 0 Z " fill="#1AA774" transform="translate(320,142)"/>
<path d="M0 0 C1.32 0.66 2.64 1.32 4 2 C4.38614349 8.8218683 3.00865708 14.49577707 1 21 C0.01 20.34 -0.98 19.68 -2 19 C-2.99 19.33 -3.98 19.66 -5 20 C-3.33333333 13.33333333 -1.66666667 6.66666667 0 0 Z " fill="#1A9A6B" transform="translate(312,207)"/>
<path d="M0 0 C2.475 0.99 2.475 0.99 5 2 C2.99155908 6.92980953 -0.64105074 10.09403383 -5 13 C-8.11257569 13 -10.10765685 12.82638376 -13 12 C-12.34 12 -11.68 12 -11 12 C-11 11.34 -11 10.68 -11 10 C-9.35546875 8.37890625 -9.35546875 8.37890625 -7.1875 6.5625 C-4.68897282 4.45536324 -2.2757944 2.34758602 0 0 Z " fill="#1CE09A" transform="translate(279,275)"/>
<path d="M0 0 C0.33 0.66 0.66 1.32 1 2 C2.32 1.67 3.64 1.34 5 1 C5 5.58936426 3.97065109 7.3360267 1.6875 11.25 C0.76517578 12.86648437 0.76517578 12.86648437 -0.17578125 14.515625 C-1.07876953 15.74539062 -1.07876953 15.74539062 -2 17 C-2.99 17 -3.98 17 -5 17 C-6.35065121 12.94804637 -5.40212262 11.00606462 -4 7 C-2.76706747 4.58570246 -1.41760938 2.31542865 0 0 Z " fill="#1CD090" transform="translate(66,115)"/>
<path d="M0 0 C2.10209857 3.15314785 2.2434761 3.86103081 2.1953125 7.44921875 C2.18886719 8.29677734 2.18242187 9.14433594 2.17578125 10.01757812 C2.15902344 10.89865234 2.14226562 11.77972656 2.125 12.6875 C2.11597656 13.58017578 2.10695313 14.47285156 2.09765625 15.39257812 C2.07409748 17.59532314 2.04120329 19.79752588 2 22 C1.896875 21.360625 1.79375 20.72125 1.6875 20.0625 C1.3471875 19.0415625 1.3471875 19.0415625 1 18 C0.01 17.67 -0.98 17.34 -2 17 C-2.66 18.98 -3.32 20.96 -4 23 C-4.33 23 -4.66 23 -5 23 C-4.855625 21.948125 -4.71125 20.89625 -4.5625 19.8125 C-3.81616844 13.89515692 -3.42610508 7.94733899 -3 2 C-2.01 2.33 -1.02 2.66 0 3 C0 2.01 0 1.02 0 0 Z " fill="#18865D" transform="translate(315,191)"/>
<path d="M0 0 C4.29 0 8.58 0 13 0 C15.09708587 5.24271468 15.18393122 7.57402889 15 13 C14.01 12.13375 13.02 11.2675 12 10.375 C8.6242947 7.46871793 5.11264353 4.808192 1.50390625 2.19921875 C1.00761719 1.80347656 0.51132813 1.40773438 0 1 C0 0.67 0 0.34 0 0 Z " fill="#1CD995" transform="translate(168,98)"/>
<path d="M0 0 C0.33 0 0.66 0 1 0 C1.02934711 3.49998201 1.04691445 6.99993179 1.0625 10.5 C1.07087891 11.48226562 1.07925781 12.46453125 1.08789062 13.4765625 C1.10659124 19.08674757 0.838879 24.45150899 0 30 C-0.99 30.33 -1.98 30.66 -3 31 C-4.13480527 27.39006828 -4.10015767 24.0157673 -4.0625 20.25 C-4.05347656 19.07953125 -4.04445313 17.9090625 -4.03515625 16.703125 C-4.02355469 15.81109375 -4.01195312 14.9190625 -4 14 C-2.68 13.67 -1.36 13.34 0 13 C-0.185625 12.34 -0.37125 11.68 -0.5625 11 C-1.13027308 7.10669886 -0.59281707 3.88624521 0 0 Z " fill="#167653" transform="translate(328,176)"/>
<path d="M0 0 C2.97 0.495 2.97 0.495 6 1 C5.63071549 2.96351278 5.22861359 4.9208754 4.8125 6.875 C4.59207031 7.96554688 4.37164062 9.05609375 4.14453125 10.1796875 C3 13 3 13 0.38671875 14.3828125 C-0.79470703 14.68832031 -0.79470703 14.68832031 -2 15 C-3 14 -3 14 -3.25 11.4375 C-2.9363148 7.1243285 -1.65063348 3.9890309 0 0 Z " fill="#1AA774" transform="translate(53,142)"/>
<path d="M0 0 C0.66 0 1.32 0 2 0 C1.34 6.27 0.68 12.54 0 19 C-4 15 -4 15 -4.390625 11.546875 C-4.34421875 10.29390625 -4.2978125 9.0409375 -4.25 7.75 C-4.21390625 6.48671875 -4.1778125 5.2234375 -4.140625 3.921875 C-4.09421875 2.95765625 -4.0478125 1.9934375 -4 1 C-3.34 1.66 -2.68 2.32 -2 3 C-1.34 2.01 -0.68 1.02 0 0 Z " fill="#18895F" transform="translate(50,170)"/>
<path d="M0 0 C0.33 0 0.66 0 1 0 C1.94617513 6.26841024 2.62907043 12.66664684 2 19 C1.34 19.66 0.68 20.32 0 21 C-2.62420914 17.63773204 -3.93779792 15.5331607 -4.4375 11.25 C-4.293125 10.1775 -4.14875 9.105 -4 8 C-3.01 7.34 -2.02 6.68 -1 6 C-0.26656572 2.93443402 -0.26656572 2.93443402 0 0 Z " fill="#166146" transform="translate(51,202)"/>
<path d="M0 0 C5.63689034 1.32632714 7.93185683 5.46631765 11 10 C10.34 10.66 9.68 11.32 9 12 C4.63459142 10.80943402 1.74214963 9.69135527 -1 6 C-1.3125 3.3125 -1.3125 3.3125 -1 1 C-0.67 0.67 -0.34 0.34 0 0 Z " fill="#1CD693" transform="translate(87,269)"/>
<path d="M0 0 C2.35119399 3.52679099 2.21443452 5.02879485 2.125 9.1875 C2.10695313 10.27417969 2.08890625 11.36085937 2.0703125 12.48046875 C2.03550781 13.72763672 2.03550781 13.72763672 2 15 C0.35 15.66 -1.3 16.32 -3 17 C-3.36463732 15.25215171 -3.7163078 13.50159498 -4.0625 11.75 C-4.25972656 10.77546875 -4.45695312 9.8009375 -4.66015625 8.796875 C-4.98397535 6.131881 -4.85503199 4.51128277 -4 2 C-3.34 2.66 -2.68 3.32 -2 4 C-1.34 4 -0.68 4 0 4 C0 2.68 0 1.36 0 0 Z " fill="#1A9467" transform="translate(325,159)"/>
<path d="M0 0 C1.32 0.33 2.64 0.66 4 1 C2.81819916 6.02265357 1.55007718 9.0949151 -2 13 C-2.66 12.01 -3.32 11.02 -4 10 C-5.98 10.99 -5.98 10.99 -8 12 C-7.40844669 10.68176698 -6.80128537 9.37052949 -6.1875 8.0625 C-5.85105469 7.33160156 -5.51460938 6.60070312 -5.16796875 5.84765625 C-4 4 -4 4 -1 3 C-0.67 2.01 -0.34 1.02 0 0 Z " fill="#1BC085" transform="translate(300,247)"/>
<path d="M0 0 C3 0 3 0 4.5625 1.4375 C7.57702593 6.81122013 8.31290023 12.89844547 8 19 C7.67 19 7.34 19 7 19 C6.67 16.69 6.34 14.38 6 12 C4.68 12 3.36 12 2 12 C-0.60018816 8.09971775 -0.15085514 4.52565431 0 0 Z " fill="#166246" transform="translate(310,164)"/>
<path d="M0 0 C0.99 0.33 1.98 0.66 3 1 C3.33 1.99 3.66 2.98 4 4 C2.44219668 4.67756882 0.87849904 5.34159457 -0.6875 6 C-1.99267578 6.556875 -1.99267578 6.556875 -3.32421875 7.125 C-6.09890315 8.03234205 -8.10367627 8.27397657 -11 8 C-13.3125 6.5 -13.3125 6.5 -15 5 C-14.67 4.01 -14.34 3.02 -14 2 C-12.96875 2.185625 -11.9375 2.37125 -10.875 2.5625 C-7.21404687 2.97583342 -4.5461482 2.9287531 -1 2 C-0.67 1.34 -0.34 0.68 0 0 Z " fill="#1AA573" transform="translate(232,252)"/>
<path d="M0 0 C1.32 0.33 2.64 0.66 4 1 C3.34 4.96 2.68 8.92 2 13 C0.02 12.34 -1.96 11.68 -4 11 C-3.34 8.03 -2.68 5.06 -2 2 C-1.34 2 -0.68 2 0 2 C0 1.34 0 0.68 0 0 Z " fill="#17573F" transform="translate(62,157)"/>
<path d="M0 0 C0.99 0 1.98 0 3 0 C3 0.66 3 1.32 3 2 C3.99 2 4.98 2 6 2 C7.32 4.64 8.64 7.28 10 10 C9.01 10 8.02 10 7 10 C5.66018514 10.3062434 4.32488113 10.63451555 3 11 C-1.06153846 4.6 -1.06153846 4.6 -0.75 1.5625 C-0.5025 1.046875 -0.255 0.53125 0 0 Z " fill="#1BC186" transform="translate(74,252)"/>
<path d="M0 0 C2.79948531 2.67776856 3.93811033 4.00976527 4.1875 8 C4 11 4 11 2 13 C2 12.34 2 11.68 2 11 C0.68 11.99 -0.64 12.98 -2 14 C-2 9.71 -2 5.42 -2 1 C-1.34 0.67 -0.68 0.34 0 0 Z " fill="#18895F" transform="translate(60,203)"/>
<path d="M0 0 C2.31 0.33 4.62 0.66 7 1 C5.68 3.31 4.36 5.62 3 8 C1.02 8 -0.96 8 -3 8 C-2.45276317 4.62537285 -1.9451 2.91765 0 0 Z " fill="#1DE19B" transform="translate(70,109)"/>
<path d="M0 0 C2.09749995 2.35968744 2.96905704 3.54616994 3.1875 6.75 C3.125625 7.4925 3.06375 8.235 3 9 C1.35 9 -0.3 9 -2 9 C-2.99 7.02 -3.98 5.04 -5 3 C-3.35 2.01 -1.7 1.02 0 0 Z " fill="#1CCA8C" transform="translate(312,124)"/>
<path d="M0 0 C1.875 0 1.875 0 4 1 C5.75 4.5625 5.75 4.5625 7 8 C6.401875 7.79375 5.80375 7.5875 5.1875 7.375 C2.71549154 6.69328085 2.71549154 6.69328085 0 9 C-1.3950848 6.70221327 -2.07438619 5.5207033 -1.6875 2.8125 C-1 1 -1 1 0 0 Z " fill="#1BB57E" transform="translate(72,246)"/>
<path d="M0 0 C0.28875 0.598125 0.5775 1.19625 0.875 1.8125 C2.04742026 4.19327792 2.04742026 4.19327792 4 7 C2.515 9.475 2.515 9.475 1 12 C-0.32 11.34 -1.64 10.68 -3 10 C-2.49287967 6.28111761 -1.88391785 3.26545761 0 0 Z " fill="#1BBE84" transform="translate(60,126)"/>
<path d="M0 0 C1.2077558 3.62326739 0.54311128 4.64146369 -1 8 C-2.65 7.67 -4.3 7.34 -6 7 C-6.33 7.66 -6.66 8.32 -7 9 C-7.66 8.67 -8.32 8.34 -9 8 C-7.875 5.125 -7.875 5.125 -6 2 C-2.8125 0.625 -2.8125 0.625 0 0 Z " fill="#1BB57D" transform="translate(306,241)"/>
<path d="M0 0 C0.99 0.33 1.98 0.66 3 1 C3 1.66 3 2.32 3 3 C3.99 3.33 4.98 3.66 6 4 C-1.33152608 6.07726572 -7.46462229 5.94351599 -15 5 C-15 4.67 -15 4.34 -15 4 C-13.95199219 3.92652344 -13.95199219 3.92652344 -12.8828125 3.8515625 C-11.97273437 3.77679688 -11.06265625 3.70203125 -10.125 3.625 C-9.22007812 3.55539062 -8.31515625 3.48578125 -7.3828125 3.4140625 C-4.82058097 3.20431868 -4.82058097 3.20431868 -3 1 C-2.34 1.33 -1.68 1.66 -1 2 C-0.67 1.34 -0.34 0.68 0 0 Z " fill="#199A6B" transform="translate(188,257)"/>
<path d="M0 0 C0.33 0 0.66 0 1 0 C1.33 1.98 1.66 3.96 2 6 C2.66 5.67 3.32 5.34 4 5 C4.33 6.98 4.66 8.96 5 11 C4.01 11.33 3.02 11.66 2 12 C1.67 12.66 1.34 13.32 1 14 C-0.20568053 9.32798795 -0.09382426 4.78503708 0 0 Z " fill="#195C43" transform="translate(45,196)"/>
<path d="M0 0 C0 2.64 0 5.28 0 8 C-1.16959987 7.02433888 -2.33561177 6.044375 -3.5 5.0625 C-4.1496875 4.51722656 -4.799375 3.97195312 -5.46875 3.41015625 C-5.9740625 2.94480469 -6.479375 2.47945313 -7 2 C-7 1.67 -7 1.34 -7 1 C-1.125 0 -1.125 0 0 0 Z " fill="#1BB27C" transform="translate(183,103)"/>
<path d="M0 0 C0.33 0 0.66 0 1 0 C1.98248524 4.0527516 2.08159574 7.83861737 2 12 C1.67 12 1.34 12 1 12 C0.67 8.04 0.34 4.08 0 0 Z M6 1 C6.33 1 6.66 1 7 1 C7 2.98 7 4.96 7 7 C6.01 5.68 5.02 4.36 4 3 C4.66 2.34 5.32 1.68 6 1 Z M2 3 C2.99 3.495 2.99 3.495 4 4 C3.67 4.66 3.34 5.32 3 6 C2.67 5.01 2.34 4.02 2 3 Z " fill="#166749" transform="translate(56,199)"/>
<path d="M0 0 C0.33 1.32 0.66 2.64 1 4 C-5.52307692 4.36923077 -5.52307692 4.36923077 -7.9375 2.5 C-8.4634375 1.7575 -8.4634375 1.7575 -9 1 C-2.25 0.875 -2.25 0.875 0 2 C0 1.34 0 0.68 0 0 Z " fill="#1CC789" transform="translate(181,100)"/>
<path d="M0 0 C0.66 1.32 1.32 2.64 2 4 C-0.475 5.485 -0.475 5.485 -3 7 C-3 5.02 -3 3.04 -3 1 C-2.01 1.495 -2.01 1.495 -1 2 C-0.67 1.34 -0.34 0.68 0 0 Z " fill="#18885E" transform="translate(60,197)"/>
</svg>
