<svg width="24" height="24" viewBox="0 0 24 24" fill="none" xmlns="http://www.w3.org/2000/svg">
<g clip-path="url(#clip0_674_29)">
<path d="M23.6131 15.0394L18.4233 6.0375C17.2857 4.1607 14.5113 4.1415 13.4131 6.11718L7.96414 15.4791C6.94654 17.1956 8.20414 19.3508 10.2403 19.3508H21.1584C23.2137 19.3508 24.7507 17.1351 23.6131 15.0394Z" fill="white"/>
<path d="M16.128 15.7382L15.8083 15.1795C15.5088 14.6601 14.8502 13.5427 14.8502 13.5427L10.4592 5.91738C9.32155 4.22106 6.62683 4.0809 5.48923 6.2169L0.379151 15.0595C-0.678769 16.9161 0.578831 19.3305 2.87419 19.3507H13.7328H18.3638H21.118C18.3043 19.3708 17.4057 17.9135 16.128 15.7382Z" fill="white"/>
<path d="M16.129 15.7381L15.8093 15.1794C15.5098 14.66 14.8512 13.5426 14.8512 13.5426L12.0163 8.55249L7.94401 15.499C6.92641 17.2155 8.18401 19.3717 10.2192 19.3717H13.7127H18.3437H21.1181C18.2842 19.3506 17.4058 17.9134 16.129 15.7381Z" fill="white"/>
</g>
<defs>
<clipPath id="clip0_674_29">
<rect width="24" height="24" fill="white"/>
</clipPath>
</defs>
</svg>
